<svg width="32" height="32" viewBox="0 0 32 32" fill="none" xmlns="http://www.w3.org/2000/svg">
  <rect width="32" height="32" rx="6" fill="#0f1114"/>
  <!-- Rocket body -->
  <path d="M16 6L18 12L16 18L14 12L16 6Z" fill="#00b6c9"/>
  <!-- Rocket tip -->
  <path d="M16 4L17 6L16 6L15 6L16 4Z" fill="#ff4fa3"/>
  <!-- Rocket window -->
  <circle cx="16" cy="11" r="2" fill="#f5c400"/>
  <!-- Rocket fins -->
  <path d="M14 18L12 22L14 22L14 18Z" fill="#00b6c9"/>
  <path d="M18 18L20 22L18 22L18 18Z" fill="#00b6c9"/>
  <!-- Rocket flame -->
  <path d="M16 18L15 24L16 26L17 24L16 18Z" fill="#ff4fa3"/>
  <path d="M16 18L14.5 22L16 24L17.5 22L16 18Z" fill="#f5c400"/>
</svg>

