<svg width="128" height="128" viewBox="0 0 128 128" fill="none" xmlns="http://www.w3.org/2000/svg">
  <rect width="128" height="128" rx="24" fill="#0f1114"/>
  <!-- Rocket body - larger and bolder -->
  <path d="M64 24L72 48L64 72L56 48L64 24Z" fill="#00b6c9" stroke="#00b6c9" stroke-width="2"/>
  <!-- Rocket tip - larger -->
  <path d="M64 16L68 24L64 24L60 24L64 16Z" fill="#ff4fa3"/>
  <!-- Rocket window - larger -->
  <circle cx="64" cy="44" r="8" fill="#f5c400"/>
  <!-- Rocket fins - larger -->
  <path d="M56 72L48 88L56 88L56 72Z" fill="#00b6c9"/>
  <path d="M72 72L80 88L72 88L72 72Z" fill="#00b6c9"/>
  <!-- Rocket flame - larger and bolder -->
  <path d="M64 72L60 96L64 104L68 96L64 72Z" fill="#ff4fa3"/>
  <path d="M64 72L58 88L64 96L70 88L64 72Z" fill="#f5c400"/>
</svg>

