<svg width="150" height="125" viewBox="0 0 150 125" fill="none" xmlns="http://www.w3.org/2000/svg">
<path d="M39.3344 35.3598C37.8963 36.7979 35.4984 36.3185 34.5398 34.4011C33.5811 32.4838 34.0604 30.0857 35.4984 28.6479L72.8969 0.359507C74.3349 -0.119836 75.2948 -0.119836 76.7329 0.359507L113.652 28.6479C115.57 30.086 116.05 32.4839 115.09 34.4011C114.132 36.3186 111.734 36.799 110.296 35.3598L74.8138 8.50951L39.332 35.3598H39.3344Z" fill="#6E89B2"/>
<path d="M5.2933 76.1154C3.85524 77.5534 1.45733 76.5947 0.498704 75.1567C-0.459982 73.2393 0.0193612 70.3621 1.45739 69.4035L38.8558 41.1151C39.8145 40.1564 41.2537 40.6357 42.6918 41.1151L74.8165 65.5675L106.941 41.1151C108.379 40.1564 109.818 40.6357 110.777 41.1151L148.176 69.4035C149.614 70.3622 150.093 73.2394 149.134 75.1567C148.176 76.5947 145.778 77.5546 144.34 76.1154L108.858 49.265C97.3511 57.8956 86.3227 66.5262 74.8165 75.1568L40.7752 49.265L5.2933 76.1154Z" fill="#6E89B2"/>
<path d="M140.026 78.5107H140.024V86.3193H77.6931V78.5107L108.859 54.5381L140.026 78.5107ZM106.462 71.3184C105.503 71.3184 104.545 72.2777 104.545 73.2363V78.0303C104.545 78.989 105.503 79.9482 106.462 79.9482H111.257C112.215 79.948 113.174 78.9889 113.174 78.0303V73.2363C113.174 72.2777 112.215 71.3186 111.257 71.3184H106.462Z" fill="#6E89B2"/>
<path d="M71.9401 78.5107H71.9382V86.3193H9.60809V78.5107L40.7741 54.5381L71.9401 78.5107ZM38.3757 71.3184C37.4171 71.3186 36.4587 72.2778 36.4587 73.2363V78.0303C36.4587 78.9889 37.4171 79.948 38.3757 79.9482H43.1706C44.1293 79.9482 45.0876 78.989 45.0876 78.0303V73.2363C45.0876 72.2776 44.1293 71.3184 43.1706 71.3184H38.3757Z" fill="#6E89B2"/>
<path d="M16.7337 103.802H15.9142L20.5021 91.0874H21.3961L25.984 103.802H25.1645L20.9802 92.0869H20.9181L16.7337 103.802ZM17.8947 99.0153H24.0036V99.7355H17.8947V99.0153Z" fill="#6C6C6C"/>
<path d="M42.7043 91.0874V103.802H41.9469L33.8389 92.4967H33.7645V103.802H32.9884V91.0874H33.752L41.86 102.405H41.9345V91.0874H42.7043Z" fill="#6C6C6C"/>
<path d="M54.5325 103.802H51.0062V91.0874H54.8057C55.9977 91.0874 57.0179 91.3399 57.8664 91.8448C58.7148 92.3498 59.3646 93.0741 59.8157 94.0177C60.271 94.9572 60.4966 96.0851 60.4924 97.4012C60.4883 98.7463 60.2524 99.8969 59.7847 100.853C59.317 101.805 58.6403 102.535 57.7546 103.045C56.8689 103.549 55.7949 103.802 54.5325 103.802ZM51.7823 103.082H54.5015C55.6355 103.082 56.5916 102.856 57.3697 102.405C58.1478 101.95 58.7355 101.298 59.1328 100.449C59.5343 99.601 59.733 98.5849 59.7288 97.4012C59.7288 96.2341 59.5364 95.2345 59.1515 94.4026C58.7666 93.5666 58.2057 92.9251 57.469 92.4781C56.7365 92.0311 55.8383 91.8076 54.7747 91.8076H51.7823V103.082Z" fill="#6C6C6C"/>
<path d="M68.1534 103.802V91.0874H72.0708C72.8737 91.0874 73.5649 91.2447 74.1443 91.5592C74.7238 91.8738 75.1687 92.3104 75.4791 92.8692C75.7895 93.4238 75.9447 94.0694 75.9447 94.8062C75.9447 95.5346 75.7895 96.1761 75.4791 96.7307C75.1687 97.2812 74.7238 97.7116 74.1443 98.022C73.569 98.3324 72.8799 98.4876 72.077 98.4876H68.5693V97.7613H72.0584C72.7123 97.7613 73.271 97.6392 73.7346 97.395C74.1981 97.1508 74.5541 96.8093 74.8024 96.3706C75.0507 95.9278 75.1749 95.4063 75.1749 94.8062C75.1749 94.2019 75.0507 93.6763 74.8024 93.2293C74.5541 92.7781 74.1961 92.4284 73.7284 92.1801C73.2648 91.9317 72.7061 91.8076 72.0521 91.8076H68.9294V103.802H68.1534ZM73.3745 98.0407L76.5035 103.802H75.6095L72.4991 98.0407H73.3745Z" fill="#6C6C6C"/>
<path d="M84.4546 91.0874V103.802H83.6786V91.0874H84.4546Z" fill="#6C6C6C"/>
<path d="M99.6213 94.266C99.5551 93.4755 99.2323 92.8361 98.6528 92.3477C98.0775 91.8593 97.3325 91.6151 96.4178 91.6151C95.8012 91.6151 95.2528 91.7289 94.7727 91.9566C94.2926 92.1842 93.9159 92.4946 93.6428 92.8878C93.3696 93.281 93.233 93.7321 93.233 94.2412C93.233 94.5682 93.2951 94.8641 93.4193 95.129C93.5476 95.3897 93.7276 95.6236 93.9594 95.8305C94.1912 96.0333 94.4664 96.2113 94.7851 96.3644C95.1038 96.5176 95.4556 96.6521 95.8405 96.768L97.2311 97.1777C97.7071 97.3226 98.1458 97.4902 98.5473 97.6806C98.9529 97.871 99.3047 98.0986 99.6027 98.3635C99.9048 98.6242 100.139 98.9305 100.304 99.2823C100.474 99.6341 100.559 100.04 100.559 100.499C100.559 101.17 100.385 101.77 100.037 102.3C99.6937 102.829 99.2033 103.247 98.5659 103.554C97.9327 103.856 97.1856 104.007 96.3247 104.007C95.5052 104.007 94.7913 103.868 94.1829 103.591C93.5786 103.314 93.1006 102.929 92.7488 102.436C92.397 101.939 92.1983 101.368 92.1528 100.723H92.9474C92.9888 101.248 93.1564 101.704 93.4503 102.088C93.7483 102.469 94.1436 102.763 94.6361 102.97C95.1286 103.177 95.6915 103.28 96.3247 103.28C97.0076 103.28 97.6098 103.165 98.1313 102.933C98.6528 102.697 99.0605 102.37 99.3543 101.952C99.6482 101.534 99.7951 101.048 99.7951 100.493C99.7951 100.046 99.6896 99.6631 99.4785 99.3444C99.2674 99.0257 98.955 98.7505 98.5411 98.5187C98.1313 98.2869 97.6223 98.08 97.0138 97.8979L95.5301 97.4509C94.5368 97.1487 93.7773 96.7369 93.2516 96.2154C92.7301 95.6939 92.4694 95.0441 92.4694 94.266C92.4694 93.6121 92.6432 93.0327 92.9909 92.5277C93.3386 92.0187 93.8104 91.6193 94.4064 91.3295C95.0065 91.0398 95.6832 90.895 96.4365 90.895C97.1939 90.895 97.8623 91.0419 98.4417 91.3357C99.0212 91.6255 99.4806 92.0249 99.82 92.5339C100.159 93.0389 100.348 93.6162 100.385 94.266H99.6213Z" fill="#6C6C6C"/>
<path d="M117.943 95.0607H117.149C117.066 94.6303 116.911 94.2143 116.683 93.8128C116.455 93.4072 116.162 93.043 115.801 92.7202C115.446 92.3932 115.032 92.1345 114.56 91.9442C114.088 91.7538 113.567 91.6586 112.995 91.6586C112.159 91.6586 111.39 91.8821 110.686 92.3291C109.986 92.7719 109.426 93.4238 109.003 94.2847C108.585 95.1455 108.376 96.1989 108.376 97.4447C108.376 98.6987 108.585 99.7562 109.003 100.617C109.426 101.478 109.986 102.13 110.686 102.573C111.39 103.011 112.159 103.231 112.995 103.231C113.567 103.231 114.088 103.138 114.56 102.951C115.032 102.761 115.446 102.504 115.801 102.182C116.162 101.855 116.455 101.488 116.683 101.083C116.911 100.677 117.066 100.259 117.149 99.8286H117.943C117.852 100.342 117.676 100.845 117.416 101.337C117.159 101.83 116.82 102.277 116.397 102.678C115.979 103.076 115.485 103.392 114.914 103.628C114.347 103.86 113.707 103.976 112.995 103.976C111.936 103.976 111.003 103.707 110.195 103.169C109.388 102.626 108.755 101.865 108.296 100.884C107.84 99.9031 107.613 98.7567 107.613 97.4447C107.613 96.1327 107.84 94.9862 108.296 94.0053C108.755 93.0244 109.388 92.2649 110.195 91.7269C111.003 91.1847 111.936 90.9136 112.995 90.9136C113.707 90.9136 114.347 91.0315 114.914 91.2675C115.485 91.4992 115.979 91.8138 116.397 92.2111C116.82 92.6043 117.159 93.0472 117.416 93.5397C117.676 94.0322 117.852 94.5392 117.943 95.0607Z" fill="#6C6C6C"/>
<path d="M125.069 103.802H124.249L128.837 91.0874H129.731L134.319 103.802H133.5L129.315 92.0869H129.253L125.069 103.802ZM126.23 99.0153H132.339V99.7355H126.23V99.0153Z" fill="#6C6C6C"/>
<path d="M0.885681 121.284V108.57H4.80309C5.61016 108.57 6.30134 108.735 6.87664 109.067C7.45608 109.398 7.901 109.851 8.21142 110.426C8.52183 111.001 8.67703 111.657 8.67703 112.394C8.67703 113.123 8.52183 113.774 8.21142 114.35C7.901 114.925 7.45608 115.38 6.87664 115.716C6.30134 116.047 5.61223 116.212 4.80929 116.212H1.43201V115.492H4.79067C5.44461 115.492 6.00335 115.36 6.4669 115.095C6.93045 114.826 7.28639 114.459 7.53472 113.996C7.78305 113.528 7.90721 112.994 7.90721 112.394C7.90721 111.79 7.78305 111.254 7.53472 110.786C7.28639 110.319 6.92838 109.952 6.46069 109.687C5.99714 109.422 5.4384 109.29 4.78446 109.29H1.66171V121.284H0.885681Z" fill="#AFAFAF"/>
<path d="M11.9161 121.284V111.748H12.6548V113.238H12.7231C12.9301 112.75 13.2798 112.359 13.7723 112.065C14.2649 111.767 14.8257 111.618 15.4548 111.618C15.521 111.618 15.5872 111.618 15.6534 111.618C15.7197 111.618 15.7817 111.62 15.8397 111.624V112.388C15.79 112.384 15.73 112.378 15.6596 112.369C15.5934 112.357 15.5106 112.351 15.4113 112.351C14.8815 112.351 14.4097 112.465 13.9958 112.692C13.5861 112.92 13.2633 113.234 13.0273 113.636C12.7914 114.033 12.6735 114.488 12.6735 115.002V121.284H11.9161Z" fill="#AFAFAF"/>
<path d="M21.6536 121.483C20.8672 121.483 20.1677 121.272 19.5552 120.85C18.9426 120.423 18.4605 119.838 18.1087 119.093C17.7569 118.348 17.581 117.499 17.581 116.547C17.581 115.591 17.7569 114.743 18.1087 114.002C18.4605 113.257 18.9426 112.671 19.5552 112.245C20.1677 111.819 20.8672 111.606 21.6536 111.606C22.44 111.606 23.1394 111.819 23.752 112.245C24.3645 112.671 24.8467 113.257 25.1985 114.002C25.5503 114.747 25.7262 115.596 25.7262 116.547C25.7262 117.499 25.5503 118.348 25.1985 119.093C24.8467 119.838 24.3645 120.423 23.752 120.85C23.1394 121.272 22.44 121.483 21.6536 121.483ZM21.6536 120.781C22.3199 120.781 22.9014 120.593 23.3981 120.217C23.8989 119.84 24.2859 119.331 24.559 118.689C24.8363 118.048 24.975 117.334 24.975 116.547C24.975 115.761 24.8363 115.049 24.559 114.412C24.2817 113.77 23.8948 113.261 23.3981 112.885C22.9014 112.504 22.3199 112.313 21.6536 112.313C20.9872 112.313 20.4057 112.504 19.9091 112.885C19.4124 113.261 19.0254 113.77 18.7481 114.412C18.4708 115.049 18.3322 115.761 18.3322 116.547C18.3322 117.334 18.4687 118.048 18.7419 118.689C19.0192 119.331 19.4062 119.84 19.9029 120.217C20.4037 120.593 20.9872 120.781 21.6536 120.781Z" fill="#AFAFAF"/>
<path d="M28.8597 124.86V111.748H29.5985V113.878H29.6916C29.8406 113.468 30.0496 113.092 30.3186 112.748C30.5918 112.404 30.9291 112.129 31.3306 111.922C31.7362 111.711 32.2121 111.606 32.7585 111.606C33.5283 111.606 34.1988 111.817 34.7699 112.239C35.3411 112.661 35.7839 113.245 36.0985 113.99C36.413 114.731 36.5703 115.581 36.5703 116.541C36.5703 117.501 36.411 118.354 36.0923 119.099C35.7777 119.84 35.3349 120.423 34.7637 120.85C34.1967 121.272 33.5324 121.483 32.7709 121.483C32.2287 121.483 31.7527 121.38 31.343 121.173C30.9374 120.966 30.5959 120.69 30.3186 120.347C30.0455 119.999 29.8364 119.618 29.6916 119.205H29.6171V124.86H28.8597ZM29.6047 116.535C29.6047 117.346 29.7288 118.073 29.9772 118.714C30.2255 119.352 30.5814 119.856 31.045 120.229C31.5085 120.597 32.0611 120.781 32.7026 120.781C33.3524 120.781 33.9091 120.595 34.3726 120.223C34.8403 119.846 35.1962 119.337 35.4404 118.696C35.6888 118.054 35.8129 117.334 35.8129 116.535C35.8129 115.736 35.6908 115.018 35.4466 114.381C35.2024 113.743 34.8486 113.241 34.385 112.872C33.9215 112.5 33.3607 112.313 32.7026 112.313C32.0528 112.313 31.4961 112.498 31.0326 112.866C30.5732 113.23 30.2193 113.731 29.971 114.368C29.7268 115.002 29.6047 115.724 29.6047 116.535Z" fill="#AFAFAF"/>
<path d="M43.4319 121.483C42.571 121.483 41.8219 121.27 41.1845 120.844C40.5471 120.417 40.0546 119.834 39.7069 119.093C39.3593 118.352 39.1854 117.508 39.1854 116.56C39.1854 115.608 39.3593 114.759 39.7069 114.015C40.0587 113.27 40.5409 112.682 41.1534 112.251C41.766 111.821 42.4654 111.606 43.2518 111.606C43.7857 111.606 44.2907 111.713 44.7666 111.929C45.2467 112.14 45.6689 112.446 46.0331 112.847C46.4015 113.249 46.6891 113.733 46.8961 114.3C47.1071 114.867 47.2127 115.504 47.2127 116.212V116.684H39.6635V115.995H46.4553C46.4553 115.304 46.3146 114.681 46.0331 114.126C45.7517 113.572 45.3688 113.131 44.8846 112.804C44.4004 112.477 43.8561 112.313 43.2518 112.313C42.6186 112.313 42.0536 112.491 41.557 112.847C41.0645 113.199 40.6733 113.675 40.3836 114.275C40.098 114.875 39.949 115.546 39.9366 116.287V116.597C39.9366 117.392 40.0753 118.106 40.3526 118.739C40.634 119.368 41.0355 119.867 41.557 120.235C42.0785 120.599 42.7034 120.781 43.4319 120.781C43.9534 120.781 44.3983 120.695 44.7666 120.521C45.1391 120.343 45.4433 120.128 45.6793 119.875C45.9152 119.623 46.0931 119.378 46.2132 119.143L46.9023 119.422C46.7574 119.741 46.5318 120.059 46.2256 120.378C45.9234 120.693 45.5385 120.955 45.0708 121.166C44.6073 121.377 44.061 121.483 43.4319 121.483Z" fill="#AFAFAF"/>
<path d="M50.3446 121.284V111.748H51.0834V113.238H51.1517C51.3586 112.75 51.7084 112.359 52.2009 112.065C52.6934 111.767 53.2542 111.618 53.8833 111.618C53.9496 111.618 54.0158 111.618 54.082 111.618C54.1482 111.618 54.2103 111.62 54.2682 111.624V112.388C54.2186 112.384 54.1586 112.378 54.0882 112.369C54.022 112.357 53.9392 112.351 53.8399 112.351C53.3101 112.351 52.8383 112.465 52.4244 112.692C52.0146 112.92 51.6918 113.234 51.4559 113.636C51.22 114.033 51.102 114.488 51.102 115.002V121.284H50.3446Z" fill="#AFAFAF"/>
<path d="M60.7961 111.748V112.425H56.6304V111.748H60.7961ZM58.0396 109.464H58.7908V119.031C58.7908 119.42 58.8653 119.739 59.0143 119.987C59.1675 120.231 59.3661 120.413 59.6103 120.533C59.8586 120.649 60.1235 120.707 60.405 120.707C60.5416 120.707 60.6595 120.697 60.7588 120.676C60.8623 120.655 60.9596 120.628 61.0506 120.595L61.2369 121.284C61.121 121.326 60.9927 121.361 60.852 121.39C60.7112 121.423 60.5457 121.44 60.3553 121.44C59.958 121.44 59.5813 121.351 59.2254 121.173C58.8736 120.995 58.588 120.736 58.3687 120.397C58.1493 120.057 58.0396 119.647 58.0396 119.167V109.464Z" fill="#AFAFAF"/>
<path d="M64.7382 124.86C64.5478 124.86 64.3595 124.84 64.1733 124.798C63.987 124.757 63.8194 124.703 63.6704 124.637L63.8939 123.973C64.2829 124.122 64.6347 124.175 64.9493 124.134C65.268 124.093 65.5494 123.948 65.7936 123.699C66.0378 123.451 66.2447 123.087 66.4144 122.607L66.849 121.415L63.3538 111.748H64.167L67.1967 120.31H67.2588L70.2884 111.748H71.1017L67.0787 122.905C66.9256 123.335 66.7331 123.695 66.5014 123.985C66.2696 124.275 66.0047 124.492 65.7067 124.637C65.4128 124.786 65.09 124.86 64.7382 124.86Z" fill="#AFAFAF"/>
<path d="M86.5553 111.748C86.4891 110.958 86.1663 110.319 85.5868 109.83C85.0115 109.342 84.2665 109.098 83.3518 109.098C82.7352 109.098 82.1868 109.211 81.7067 109.439C81.2265 109.667 80.8499 109.977 80.5768 110.37C80.3036 110.763 80.167 111.215 80.167 111.724C80.167 112.051 80.2291 112.347 80.3533 112.611C80.4816 112.872 80.6616 113.106 80.8934 113.313C81.1252 113.516 81.4004 113.694 81.7191 113.847C82.0378 114 82.3896 114.135 82.7745 114.25L84.1651 114.66C84.6411 114.805 85.0798 114.973 85.4813 115.163C85.8869 115.353 86.2387 115.581 86.5367 115.846C86.8388 116.107 87.0727 116.413 87.2382 116.765C87.4079 117.117 87.4927 117.522 87.4927 117.982C87.4927 118.652 87.3189 119.252 86.9713 119.782C86.6277 120.312 86.1373 120.73 85.4999 121.036C84.8667 121.338 84.1196 121.489 83.2587 121.489C82.4392 121.489 81.7253 121.351 81.1169 121.073C80.5126 120.796 80.0346 120.411 79.6828 119.919C79.331 119.422 79.1323 118.851 79.0868 118.205H79.8814C79.9228 118.731 80.0904 119.186 80.3843 119.571C80.6823 119.952 81.0776 120.246 81.5701 120.452C82.0626 120.659 82.6255 120.763 83.2587 120.763C83.9416 120.763 84.5438 120.647 85.0653 120.415C85.5868 120.179 85.9945 119.852 86.2883 119.434C86.5822 119.016 86.7291 118.53 86.7291 117.975C86.7291 117.528 86.6236 117.146 86.4125 116.827C86.2014 116.508 85.8889 116.233 85.4751 116.001C85.0653 115.769 84.5562 115.562 83.9478 115.38L82.4641 114.933C81.4707 114.631 80.7113 114.219 80.1856 113.698C79.6641 113.176 79.4034 112.527 79.4034 111.748C79.4034 111.095 79.5772 110.515 79.9249 110.01C80.2725 109.501 80.7444 109.102 81.3404 108.812C81.9405 108.522 82.6172 108.377 83.3705 108.377C84.1279 108.377 84.7963 108.524 85.3757 108.818C85.9552 109.108 86.4146 109.507 86.754 110.016C87.0933 110.521 87.2817 111.099 87.3189 111.748H86.5553Z" fill="#AFAFAF"/>
<path d="M94.5359 121.483C93.675 121.483 92.9259 121.27 92.2885 120.844C91.6511 120.417 91.1586 119.834 90.8109 119.093C90.4633 118.352 90.2894 117.508 90.2894 116.56C90.2894 115.608 90.4633 114.759 90.8109 114.015C91.1627 113.27 91.6449 112.682 92.2575 112.251C92.87 111.821 93.5695 111.606 94.3559 111.606C94.8898 111.606 95.3947 111.713 95.8707 111.929C96.3508 112.14 96.7729 112.446 97.1371 112.847C97.5055 113.249 97.7932 113.733 98.0001 114.3C98.2112 114.867 98.3167 115.504 98.3167 116.212V116.684H90.7675V115.995H97.5593C97.5593 115.304 97.4186 114.681 97.1371 114.126C96.8557 113.572 96.4729 113.131 95.9886 112.804C95.5044 112.477 94.9601 112.313 94.3559 112.313C93.7226 112.313 93.1577 112.491 92.661 112.847C92.1685 113.199 91.7774 113.675 91.4876 114.275C91.2021 114.875 91.0531 115.546 91.0406 116.287V116.597C91.0406 117.392 91.1793 118.106 91.4566 118.739C91.738 119.368 92.1395 119.867 92.661 120.235C93.1825 120.599 93.8074 120.781 94.5359 120.781C95.0574 120.781 95.5023 120.695 95.8707 120.521C96.2431 120.343 96.5474 120.128 96.7833 119.875C97.0192 119.623 97.1972 119.378 97.3172 119.143L98.0063 119.422C97.8614 119.741 97.6359 120.059 97.3296 120.378C97.0275 120.693 96.6426 120.955 96.1749 121.166C95.7113 121.377 95.165 121.483 94.5359 121.483Z" fill="#AFAFAF"/>
<path d="M101.449 121.284V111.748H102.187V113.238H102.256C102.463 112.75 102.812 112.359 103.305 112.065C103.797 111.767 104.358 111.618 104.987 111.618C105.054 111.618 105.12 111.618 105.186 111.618C105.252 111.618 105.314 111.62 105.372 111.624V112.388C105.323 112.384 105.263 112.378 105.192 112.369C105.126 112.357 105.043 112.351 104.944 112.351C104.414 112.351 103.942 112.465 103.528 112.692C103.119 112.92 102.796 113.234 102.56 113.636C102.324 114.033 102.206 114.488 102.206 115.002V121.284H101.449Z" fill="#AFAFAF"/>
<path d="M115.194 111.748L111.748 121.284H110.891L107.446 111.748H108.259L111.289 120.31H111.351L114.38 111.748H115.194Z" fill="#AFAFAF"/>
<path d="M118.122 121.284V111.748H118.873V121.284H118.122ZM118.501 110.06C118.335 110.06 118.19 110.002 118.066 109.886C117.946 109.77 117.886 109.629 117.886 109.464C117.886 109.298 117.946 109.158 118.066 109.042C118.186 108.926 118.331 108.868 118.501 108.868C118.666 108.868 118.809 108.926 118.929 109.042C119.053 109.158 119.116 109.298 119.116 109.464C119.116 109.629 119.056 109.77 118.935 109.886C118.815 110.002 118.671 110.06 118.501 110.06Z" fill="#AFAFAF"/>
<path d="M126.146 121.483C125.335 121.483 124.621 121.27 124.004 120.844C123.388 120.413 122.906 119.825 122.558 119.08C122.214 118.335 122.043 117.491 122.043 116.547C122.043 115.604 122.216 114.759 122.564 114.015C122.912 113.27 123.394 112.682 124.011 112.251C124.627 111.821 125.337 111.606 126.14 111.606C126.744 111.606 127.295 111.73 127.791 111.978C128.292 112.227 128.706 112.572 129.033 113.015C129.364 113.458 129.575 113.971 129.666 114.555H128.896C128.772 113.909 128.462 113.375 127.965 112.953C127.473 112.527 126.866 112.313 126.146 112.313C125.501 112.313 124.925 112.496 124.42 112.86C123.915 113.22 123.518 113.719 123.228 114.356C122.939 114.989 122.794 115.716 122.794 116.535C122.794 117.342 122.935 118.066 123.216 118.708C123.497 119.345 123.891 119.85 124.396 120.223C124.9 120.595 125.484 120.781 126.146 120.781C126.614 120.781 127.04 120.688 127.425 120.502C127.814 120.316 128.139 120.051 128.4 119.707C128.661 119.364 128.832 118.962 128.915 118.503H129.685C129.594 119.091 129.387 119.608 129.064 120.055C128.741 120.502 128.329 120.852 127.829 121.104C127.328 121.357 126.767 121.483 126.146 121.483Z" fill="#AFAFAF"/>
<path d="M136.511 121.483C135.65 121.483 134.901 121.27 134.263 120.844C133.626 120.417 133.133 119.834 132.786 119.093C132.438 118.352 132.264 117.508 132.264 116.56C132.264 115.608 132.438 114.759 132.786 114.015C133.138 113.27 133.62 112.682 134.232 112.251C134.845 111.821 135.544 111.606 136.331 111.606C136.865 111.606 137.37 111.713 137.846 111.929C138.326 112.14 138.748 112.446 139.112 112.847C139.48 113.249 139.768 113.733 139.975 114.3C140.186 114.867 140.292 115.504 140.292 116.212V116.684H132.742V115.995H139.534C139.534 115.304 139.393 114.681 139.112 114.126C138.831 113.572 138.448 113.131 137.964 112.804C137.479 112.477 136.935 112.313 136.331 112.313C135.698 112.313 135.133 112.491 134.636 112.847C134.143 113.199 133.752 113.675 133.463 114.275C133.177 114.875 133.028 115.546 133.016 116.287V116.597C133.016 117.392 133.154 118.106 133.431 118.739C133.713 119.368 134.114 119.867 134.636 120.235C135.157 120.599 135.782 120.781 136.511 120.781C137.032 120.781 137.477 120.695 137.846 120.521C138.218 120.343 138.522 120.128 138.758 119.875C138.994 119.623 139.172 119.378 139.292 119.143L139.981 119.422C139.836 119.741 139.611 120.059 139.304 120.378C139.002 120.693 138.617 120.955 138.15 121.166C137.686 121.377 137.14 121.483 136.511 121.483Z" fill="#AFAFAF"/>
<path d="M149.483 113.803L148.781 113.99C148.669 113.642 148.51 113.342 148.303 113.089C148.096 112.837 147.836 112.642 147.521 112.506C147.211 112.365 146.838 112.295 146.403 112.295C145.704 112.295 145.131 112.469 144.684 112.816C144.241 113.164 144.02 113.617 144.02 114.176C144.02 114.631 144.171 115.008 144.473 115.306C144.775 115.6 145.236 115.823 145.857 115.976L147.322 116.343C148.076 116.529 148.643 116.831 149.023 117.249C149.404 117.663 149.595 118.178 149.595 118.795C149.595 119.32 149.452 119.786 149.166 120.192C148.881 120.597 148.485 120.914 147.98 121.142C147.48 121.369 146.896 121.483 146.23 121.483C145.34 121.483 144.609 121.276 144.038 120.862C143.467 120.444 143.101 119.846 142.939 119.068L143.666 118.882C143.802 119.503 144.086 119.976 144.516 120.303C144.951 120.626 145.52 120.788 146.223 120.788C147.002 120.788 147.629 120.604 148.105 120.235C148.585 119.867 148.825 119.395 148.825 118.82C148.825 118.381 148.684 118.011 148.403 117.708C148.121 117.406 147.695 117.185 147.124 117.044L145.603 116.672C144.825 116.481 144.241 116.177 143.852 115.759C143.463 115.337 143.268 114.817 143.268 114.201C143.268 113.688 143.403 113.236 143.672 112.847C143.941 112.458 144.311 112.154 144.783 111.935C145.255 111.715 145.795 111.606 146.403 111.606C147.211 111.606 147.869 111.796 148.378 112.177C148.887 112.558 149.255 113.1 149.483 113.803Z" fill="#AFAFAF"/>
<path d="M0 97.246H14.7508V97.7923H0V97.246Z" fill="#6C6C6C"/>
<path d="M134.943 97.246H149.693V97.7923H134.943V97.246Z" fill="#6C6C6C"/>
<path d="M105.021 37.2764L74.8164 59.8115L44.6113 37.2764L74.8164 14.2617L105.021 37.2764ZM83.3838 29.5078C77.9749 25.2241 74.4044 25.8388 72.9844 26.3877C72.5737 26.5451 72.6669 26.7486 73.1006 26.8027C74.1796 26.8849 76.0828 27.1696 77.1807 27.9102C77.7377 28.2893 77.7175 28.8383 77.6719 30.0811C77.6701 30.1282 77.6688 30.1765 77.667 30.2256C77.6692 30.2459 77.6711 30.2672 77.6729 30.2891C77.68 30.3806 77.6877 30.4859 77.7441 30.6084C77.8378 30.8112 78.0294 31.0923 78.2051 31.2314L78.5176 31.4785C78.8105 31.7105 78.9077 31.9489 78.8877 32.2549L78.8516 33.0625C78.8554 33.0977 78.8282 33.1724 78.7969 33.2119L77.2148 35.209C77.1679 35.2683 77.0664 35.3168 77.0117 35.3057L76.8867 35.3037C76.8166 35.3123 76.7153 35.3598 76.6836 35.3994L74.5254 38.0625L71.8047 35.1934C72.2464 34.2207 72.5805 32.673 72.3799 31.6279C72.1791 30.5828 71.6571 29.6209 70.8838 28.8682C69.565 27.5988 67.6703 27.0691 65.8584 27.4648C65.747 27.4976 65.6607 27.5844 65.6299 27.6934C65.5988 27.8026 65.6278 27.9191 65.7061 28.0029L68.3164 30.541C68.4645 30.6867 68.5228 30.8969 68.4697 31.0947C68.4715 31.1267 68.4715 31.1594 68.4697 31.1914L68.2559 33.1709C68.2559 33.5153 67.9681 33.7949 67.6133 33.7949L65.5732 34.0029C65.5406 34.0047 65.5075 34.0047 65.4746 34.0029C65.2632 34.0636 65.035 34.0056 64.8799 33.8535L62.2646 31.3193C62.1804 31.2577 62.0715 31.2375 61.9697 31.2646C61.8681 31.2916 61.7848 31.3632 61.7451 31.458C61.459 32.7304 61.6671 34.0612 62.3301 35.1934C62.9931 36.3253 64.0635 37.1801 65.3359 37.5928C66.6085 38.0052 68.0739 37.7039 69.3047 37.1855L72.582 40.4629L68.1875 45.8867C68.0152 46.1043 68.1162 46.3778 68.3506 46.5635L70.1084 47.9551C70.3428 48.1407 70.7486 48.2693 70.9209 48.0518L74.958 42.8379L78.8047 46.6855C79.0219 46.9027 79.2094 47.099 79.375 47.2725C80.3524 48.2963 80.5663 48.52 81.6201 47.5C82.6741 46.4799 82.4259 46.2425 81.3936 45.2568C81.219 45.0902 81.0216 44.9025 80.8047 44.6855L76.7988 40.46L79.1836 37.3799C79.2305 37.3206 79.2538 37.2101 79.2461 37.1396L79.25 37.0146C79.2423 36.9442 79.2664 36.8339 79.3135 36.7744L80.8633 34.8164C80.8946 34.7769 80.9462 34.7536 80.9971 34.7295L81.7549 34.4932C82.0327 34.4235 82.3183 34.4246 82.5293 34.5596C82.6269 34.6368 82.7598 34.7099 82.8535 34.752C83.0573 34.85 83.4917 35.0056 83.5059 35.0107C83.7832 35.1018 84.1191 35.4001 84.252 35.6338C84.3824 35.8635 84.4716 36.0295 84.4746 36.0352C84.5604 36.1674 84.705 36.3466 84.8223 36.4395L85.7988 37.2129C85.9158 37.3054 86.0759 37.3038 86.1543 37.2051L88.4717 34.2783C88.5499 34.1795 88.5156 34.0226 88.3984 33.9297L87.4219 33.1562C87.3048 33.0636 87.0783 32.9481 86.9492 32.9102L86.5068 32.7861C86.2489 32.7104 85.9168 32.447 85.7295 32.2021C85.7687 32.2332 85.0046 30.7915 83.3838 29.5078Z" fill="#6E89B2"/>
</svg>
