<svg xmlns="http://www.w3.org/2000/svg" xmlns:xlink="http://www.w3.org/1999/xlink" width="610" zoomAndPan="magnify" viewBox="0 0 457.5 97.5" height="130" preserveAspectRatio="xMidYMid meet" version="1.0"><defs><g/><clipPath id="661eb01340"><path d="M 10.617188 14.609375 L 183.730469 14.609375 L 183.730469 82.511719 L 10.617188 82.511719 Z M 10.617188 14.609375 " clip-rule="nonzero"/></clipPath><clipPath id="e8a53214d0"><path d="M 27.429688 33 L 82.644531 33 L 82.644531 82.238281 L 27.429688 82.238281 Z M 27.429688 33 " clip-rule="nonzero"/></clipPath><clipPath id="7646ff6bd5"><rect x="0" width="249" y="0" height="81"/></clipPath></defs><g clip-path="url(#661eb01340)"><path fill="#293241" d="M 182.503906 35.625 L 101.40625 15.320312 C 98.683594 14.640625 95.847656 14.640625 93.183594 15.320312 L 12.027344 35.625 C 10.609375 35.964844 10.609375 38.003906 12.027344 38.347656 L 51.894531 48.328125 C 74.46875 41.636719 98.742188 41.296875 121.824219 45.378906 C 98.457031 42.769531 73.84375 44.8125 51.894531 53.261719 L 51.894531 64.660156 C 51.894531 65.625 52.804688 66.25 53.710938 65.964844 C 66.640625 61.996094 81.5 59.667969 97.265625 59.667969 C 113.03125 59.667969 127.890625 61.996094 140.878906 65.964844 C 141.785156 66.25 142.636719 65.625 142.636719 64.660156 L 142.636719 48.328125 L 160.046875 43.960938 L 160.046875 74.472656 L 159.761719 74.472656 C 159.140625 74.472656 158.628906 74.980469 158.628906 75.605469 L 158.628906 81.21875 C 158.628906 81.84375 159.140625 82.355469 159.761719 82.355469 L 163.164062 82.355469 C 163.789062 82.355469 164.300781 81.84375 164.300781 81.21875 L 164.300781 75.605469 C 164.300781 74.980469 163.789062 74.472656 163.164062 74.472656 L 162.882812 74.472656 L 162.882812 43.28125 L 182.503906 38.347656 C 183.980469 38.007812 183.980469 35.964844 182.503906 35.625 Z M 182.503906 35.625 " fill-opacity="1" fill-rule="nonzero"/></g><g clip-path="url(#e8a53214d0)"><path fill="#48ab5d" d="M 76.792969 57.703125 C 76.792969 71.332031 65.742188 82.382812 52.113281 82.382812 C 38.480469 82.382812 27.429688 71.320312 27.429688 57.703125 C 27.429688 44.085938 38.476562 33.023438 52.109375 33.023438 C 53.75 33.019531 55.378906 33.183594 56.988281 33.507812 C 58.601562 33.828125 60.164062 34.3125 61.679688 34.949219 C 63.195312 35.585938 64.632812 36.367188 65.988281 37.292969 C 67.347656 38.214844 68.601562 39.265625 69.75 40.441406 L 66.066406 44.125 C 65.167969 43.199219 64.183594 42.367188 63.121094 41.636719 C 62.054688 40.90625 60.929688 40.289062 59.742188 39.78125 C 58.550781 39.277344 57.324219 38.890625 56.0625 38.632812 C 54.796875 38.371094 53.519531 38.234375 52.226562 38.230469 C 41.53125 38.167969 32.714844 46.855469 32.636719 57.554688 C 32.628906 58.246094 32.664062 58.933594 32.730469 59.621094 C 32.800781 60.308594 32.90625 60.988281 33.046875 61.664062 C 33.1875 62.339844 33.363281 63.007812 33.574219 63.664062 C 33.785156 64.320312 34.03125 64.964844 34.3125 65.59375 C 34.59375 66.222656 34.90625 66.839844 35.25 67.4375 C 35.597656 68.03125 35.972656 68.609375 36.378906 69.167969 C 36.785156 69.726562 37.222656 70.257812 37.6875 70.769531 C 38.148438 71.28125 38.640625 71.765625 39.152344 72.226562 C 39.667969 72.683594 40.207031 73.113281 40.769531 73.515625 C 41.328125 73.917969 41.910156 74.289062 42.511719 74.628906 C 43.109375 74.96875 43.726562 75.277344 44.359375 75.550781 C 44.992188 75.828125 45.640625 76.066406 46.296875 76.273438 C 46.957031 76.476562 47.625 76.648438 48.300781 76.785156 C 48.976562 76.917969 49.660156 77.015625 50.347656 77.078125 C 51.035156 77.140625 51.722656 77.167969 52.414062 77.15625 C 53.101562 77.144531 53.789062 77.097656 54.476562 77.015625 C 55.160156 76.929688 55.839844 76.8125 56.511719 76.65625 C 57.183594 76.5 57.84375 76.308594 58.496094 76.082031 C 59.148438 75.855469 59.789062 75.59375 60.410156 75.300781 C 61.035156 75.007812 61.640625 74.679688 62.230469 74.320312 C 62.820312 73.960938 63.390625 73.574219 63.9375 73.15625 C 64.488281 72.734375 65.011719 72.289062 65.511719 71.8125 C 66.011719 71.339844 66.484375 70.839844 66.933594 70.3125 C 67.382812 69.789062 67.800781 69.238281 68.1875 68.671875 C 68.578125 68.101562 68.9375 67.511719 69.261719 66.902344 C 69.589844 66.296875 69.882812 65.671875 70.144531 65.035156 C 70.402344 64.394531 70.628906 63.742188 70.820312 63.082031 C 71.011719 62.417969 71.167969 61.746094 71.285156 61.066406 C 71.40625 60.386719 71.488281 59.703125 71.539062 59.015625 C 71.585938 58.324219 71.59375 57.636719 71.570312 56.949219 C 71.542969 56.257812 71.480469 55.570312 71.378906 54.890625 C 71.28125 54.207031 71.148438 53.53125 70.976562 52.863281 L 75.105469 48.730469 C 76.234375 51.617188 76.792969 54.605469 76.792969 57.703125 Z M 53.339844 58.613281 L 47.429688 52.707031 C 47.089844 52.367188 46.71875 52.0625 46.316406 51.792969 C 45.917969 51.527344 45.496094 51.300781 45.050781 51.117188 C 44.605469 50.933594 44.148438 50.792969 43.675781 50.699219 C 43.203125 50.605469 42.726562 50.558594 42.246094 50.558594 C 41.765625 50.558594 41.289062 50.605469 40.816406 50.699219 C 40.34375 50.792969 39.886719 50.933594 39.441406 51.117188 C 38.996094 51.300781 38.574219 51.527344 38.171875 51.792969 C 37.773438 52.0625 37.402344 52.367188 37.0625 52.707031 L 52.199219 67.84375 C 52.347656 67.996094 52.523438 68.113281 52.71875 68.191406 C 52.917969 68.273438 53.121094 68.316406 53.335938 68.316406 C 53.546875 68.316406 53.753906 68.273438 53.949219 68.191406 C 54.148438 68.113281 54.320312 67.996094 54.472656 67.84375 L 82.644531 39.671875 C 82.304688 39.332031 81.933594 39.027344 81.535156 38.761719 C 81.132812 38.492188 80.710938 38.265625 80.265625 38.082031 C 79.820312 37.898438 79.363281 37.757812 78.890625 37.664062 C 78.417969 37.570312 77.941406 37.523438 77.460938 37.523438 C 76.980469 37.523438 76.503906 37.570312 76.03125 37.664062 C 75.558594 37.757812 75.101562 37.898438 74.65625 38.082031 C 74.210938 38.265625 73.789062 38.492188 73.386719 38.761719 C 72.988281 39.027344 72.617188 39.332031 72.277344 39.671875 Z M 53.339844 58.613281 " fill-opacity="1" fill-rule="nonzero"/></g><g transform="matrix(1, 0, 0, 1, 198, 0.000000000000016237)"><g clip-path="url(#7646ff6bd5)"><g fill="#af2244" fill-opacity="1"><g transform="translate(0.612785, 60.197854)"><g><path d="M 1.875 -20.03125 C 1.875 -23.976562 2.726562 -27.5 4.4375 -30.59375 C 6.144531 -33.6875 8.523438 -36.097656 11.578125 -37.828125 C 14.640625 -39.554688 18.101562 -40.421875 21.96875 -40.421875 C 26.71875 -40.421875 30.78125 -39.164062 34.15625 -36.65625 C 37.53125 -34.15625 39.785156 -30.738281 40.921875 -26.40625 L 30.21875 -26.40625 C 29.425781 -28.082031 28.296875 -29.351562 26.828125 -30.21875 C 25.367188 -31.09375 23.710938 -31.53125 21.859375 -31.53125 C 18.859375 -31.53125 16.425781 -30.484375 14.5625 -28.390625 C 12.707031 -26.304688 11.78125 -23.519531 11.78125 -20.03125 C 11.78125 -16.539062 12.707031 -13.75 14.5625 -11.65625 C 16.425781 -9.570312 18.859375 -8.53125 21.859375 -8.53125 C 23.710938 -8.53125 25.367188 -8.96875 26.828125 -9.84375 C 28.296875 -10.71875 29.425781 -11.988281 30.21875 -13.65625 L 40.921875 -13.65625 C 39.785156 -9.332031 37.53125 -5.925781 34.15625 -3.4375 C 30.78125 -0.957031 26.71875 0.28125 21.96875 0.28125 C 18.101562 0.28125 14.640625 -0.578125 11.578125 -2.296875 C 8.523438 -4.023438 6.144531 -6.425781 4.4375 -9.5 C 2.726562 -12.570312 1.875 -16.082031 1.875 -20.03125 Z M 1.875 -20.03125 "/></g></g></g><g fill="#af2244" fill-opacity="1"><g transform="translate(43.980275, 60.197854)"><g><path d="M 22.421875 0.40625 C 18.671875 0.40625 15.226562 -0.46875 12.09375 -2.21875 C 8.96875 -3.96875 6.484375 -6.40625 4.640625 -9.53125 C 2.796875 -12.664062 1.875 -16.1875 1.875 -20.09375 C 1.875 -24 2.796875 -27.507812 4.640625 -30.625 C 6.484375 -33.738281 8.96875 -36.164062 12.09375 -37.90625 C 15.226562 -39.65625 18.671875 -40.53125 22.421875 -40.53125 C 26.179688 -40.53125 29.625 -39.65625 32.75 -37.90625 C 35.882812 -36.164062 38.351562 -33.738281 40.15625 -30.625 C 41.957031 -27.507812 42.859375 -24 42.859375 -20.09375 C 42.859375 -16.1875 41.945312 -12.664062 40.125 -9.53125 C 38.300781 -6.40625 35.832031 -3.96875 32.71875 -2.21875 C 29.613281 -0.46875 26.179688 0.40625 22.421875 0.40625 Z M 22.421875 -8.484375 C 25.609375 -8.484375 28.160156 -9.546875 30.078125 -11.671875 C 31.992188 -13.796875 32.953125 -16.601562 32.953125 -20.09375 C 32.953125 -23.625 31.992188 -26.441406 30.078125 -28.546875 C 28.160156 -30.648438 25.609375 -31.703125 22.421875 -31.703125 C 19.203125 -31.703125 16.632812 -30.65625 14.71875 -28.5625 C 12.800781 -26.476562 11.84375 -23.65625 11.84375 -20.09375 C 11.84375 -16.5625 12.800781 -13.742188 14.71875 -11.640625 C 16.632812 -9.535156 19.203125 -8.484375 22.421875 -8.484375 Z M 22.421875 -8.484375 "/></g></g></g><g fill="#af2244" fill-opacity="1"><g transform="translate(88.713665, 60.197854)"><g><path d="M 13.265625 -7.515625 L 26.015625 -7.515625 L 26.015625 0 L 3.53125 0 L 3.53125 -39.953125 L 13.265625 -39.953125 Z M 13.265625 -7.515625 "/></g></g></g><g fill="#af2244" fill-opacity="1"><g transform="translate(115.861031, 60.197854)"><g><path d="M 13.265625 -7.515625 L 26.015625 -7.515625 L 26.015625 0 L 3.53125 0 L 3.53125 -39.953125 L 13.265625 -39.953125 Z M 13.265625 -7.515625 "/></g></g></g><g fill="#af2244" fill-opacity="1"><g transform="translate(143.008397, 60.197854)"><g><path d="M 13.265625 -32.15625 L 13.265625 -24.078125 L 26.296875 -24.078125 L 26.296875 -16.5625 L 13.265625 -16.5625 L 13.265625 -7.796875 L 28 -7.796875 L 28 0 L 3.53125 0 L 3.53125 -39.953125 L 28 -39.953125 L 28 -32.15625 Z M 13.265625 -32.15625 "/></g></g></g><g fill="#af2244" fill-opacity="1"><g transform="translate(173.798177, 60.197854)"><g><path d="M 30.0625 -27.328125 C 29.332031 -28.648438 28.296875 -29.660156 26.953125 -30.359375 C 25.609375 -31.066406 24.023438 -31.421875 22.203125 -31.421875 C 19.046875 -31.421875 16.519531 -30.382812 14.625 -28.3125 C 12.726562 -26.25 11.78125 -23.488281 11.78125 -20.03125 C 11.78125 -16.351562 12.773438 -13.476562 14.765625 -11.40625 C 16.765625 -9.34375 19.507812 -8.3125 23 -8.3125 C 25.382812 -8.3125 27.398438 -8.914062 29.046875 -10.125 C 30.703125 -11.34375 31.910156 -13.09375 32.671875 -15.375 L 20.328125 -15.375 L 20.328125 -22.546875 L 41.5 -22.546875 L 41.5 -13.484375 C 40.78125 -11.054688 39.554688 -8.800781 37.828125 -6.71875 C 36.097656 -4.632812 33.90625 -2.945312 31.25 -1.65625 C 28.59375 -0.363281 25.59375 0.28125 22.25 0.28125 C 18.3125 0.28125 14.796875 -0.578125 11.703125 -2.296875 C 8.609375 -4.023438 6.195312 -6.425781 4.46875 -9.5 C 2.738281 -12.570312 1.875 -16.082031 1.875 -20.03125 C 1.875 -23.976562 2.738281 -27.5 4.46875 -30.59375 C 6.195312 -33.6875 8.597656 -36.097656 11.671875 -37.828125 C 14.742188 -39.554688 18.253906 -40.421875 22.203125 -40.421875 C 26.984375 -40.421875 31.015625 -39.257812 34.296875 -36.9375 C 37.578125 -34.625 39.75 -31.421875 40.8125 -27.328125 Z M 30.0625 -27.328125 "/></g></g></g><g fill="#af2244" fill-opacity="1"><g transform="translate(217.165679, 60.197854)"><g><path d="M 13.265625 -32.15625 L 13.265625 -24.078125 L 26.296875 -24.078125 L 26.296875 -16.5625 L 13.265625 -16.5625 L 13.265625 -7.796875 L 28 -7.796875 L 28 0 L 3.53125 0 L 3.53125 -39.953125 L 28 -39.953125 L 28 -32.15625 Z M 13.265625 -32.15625 "/></g></g></g></g></g><g fill="#536392" fill-opacity="1"><g transform="translate(241.059219, 83.375766)"><g><path d="M 10.109375 0 L 6.328125 -6.484375 L 3.828125 -6.484375 L 3.828125 0 L 1.75 0 L 1.75 -15.875 L 6.875 -15.875 C 8.070312 -15.875 9.082031 -15.664062 9.90625 -15.25 C 10.738281 -14.84375 11.359375 -14.289062 11.765625 -13.59375 C 12.179688 -12.894531 12.390625 -12.097656 12.390625 -11.203125 C 12.390625 -10.109375 12.070312 -9.144531 11.4375 -8.3125 C 10.8125 -7.476562 9.867188 -6.921875 8.609375 -6.640625 L 12.59375 0 Z M 3.828125 -8.15625 L 6.875 -8.15625 C 8 -8.15625 8.84375 -8.429688 9.40625 -8.984375 C 9.96875 -9.535156 10.25 -10.273438 10.25 -11.203125 C 10.25 -12.140625 9.96875 -12.863281 9.40625 -13.375 C 8.851562 -13.894531 8.007812 -14.15625 6.875 -14.15625 L 3.828125 -14.15625 Z M 3.828125 -8.15625 "/></g></g></g><g fill="#536392" fill-opacity="1"><g transform="translate(266.280965, 83.375766)"><g><path d="M 11.125 -3.53125 L 4.21875 -3.53125 L 2.9375 0 L 0.75 0 L 6.484375 -15.78125 L 8.875 -15.78125 L 14.59375 0 L 12.40625 0 Z M 10.546875 -5.21875 L 7.671875 -13.234375 L 4.796875 -5.21875 Z M 10.546875 -5.21875 "/></g></g></g><g fill="#536392" fill-opacity="1"><g transform="translate(293.004759, 83.375766)"><g><path d="M 11.515625 -15.875 L 11.515625 -14.1875 L 7.1875 -14.1875 L 7.1875 0 L 5.125 0 L 5.125 -14.1875 L 0.78125 -14.1875 L 0.78125 -15.875 Z M 11.515625 -15.875 "/></g></g></g><g fill="#536392" fill-opacity="1"><g transform="translate(316.701697, 83.375766)"><g><path d="M 3.828125 -15.875 L 3.828125 0 L 1.75 0 L 1.75 -15.875 Z M 3.828125 -15.875 "/></g></g></g><g fill="#536392" fill-opacity="1"><g transform="translate(333.684965, 83.375766)"><g><path d="M 14.234375 0 L 12.15625 0 L 3.828125 -12.640625 L 3.828125 0 L 1.75 0 L 1.75 -15.890625 L 3.828125 -15.890625 L 12.15625 -3.28125 L 12.15625 -15.890625 L 14.234375 -15.890625 Z M 14.234375 0 "/></g></g></g><g fill="#536392" fill-opacity="1"><g transform="translate(361.068742, 83.375766)"><g><path d="M 13.765625 -11.265625 C 13.328125 -12.191406 12.691406 -12.910156 11.859375 -13.421875 C 11.023438 -13.929688 10.054688 -14.1875 8.953125 -14.1875 C 7.835938 -14.1875 6.835938 -13.929688 5.953125 -13.421875 C 5.066406 -12.910156 4.367188 -12.179688 3.859375 -11.234375 C 3.347656 -10.285156 3.09375 -9.1875 3.09375 -7.9375 C 3.09375 -6.695312 3.347656 -5.601562 3.859375 -4.65625 C 4.367188 -3.71875 5.066406 -2.992188 5.953125 -2.484375 C 6.835938 -1.984375 7.835938 -1.734375 8.953125 -1.734375 C 10.492188 -1.734375 11.765625 -2.191406 12.765625 -3.109375 C 13.773438 -4.035156 14.363281 -5.289062 14.53125 -6.875 L 8.203125 -6.875 L 8.203125 -8.5625 L 16.734375 -8.5625 L 16.734375 -6.96875 C 16.609375 -5.664062 16.195312 -4.46875 15.5 -3.375 C 14.800781 -2.289062 13.882812 -1.429688 12.75 -0.796875 C 11.613281 -0.171875 10.347656 0.140625 8.953125 0.140625 C 7.472656 0.140625 6.125 -0.203125 4.90625 -0.890625 C 3.695312 -1.585938 2.738281 -2.550781 2.03125 -3.78125 C 1.332031 -5.007812 0.984375 -6.394531 0.984375 -7.9375 C 0.984375 -9.488281 1.332031 -10.882812 2.03125 -12.125 C 2.738281 -13.363281 3.695312 -14.328125 4.90625 -15.015625 C 6.125 -15.703125 7.472656 -16.046875 8.953125 -16.046875 C 10.628906 -16.046875 12.113281 -15.628906 13.40625 -14.796875 C 14.707031 -13.960938 15.65625 -12.785156 16.25 -11.265625 Z M 13.765625 -11.265625 "/></g></g></g><g fill="#536392" fill-opacity="1"><g transform="translate(390.159385, 83.375766)"><g><path d="M 6.78125 0.15625 C 5.738281 0.15625 4.800781 -0.0234375 3.96875 -0.390625 C 3.144531 -0.765625 2.5 -1.28125 2.03125 -1.9375 C 1.5625 -2.601562 1.316406 -3.367188 1.296875 -4.234375 L 3.5 -4.234375 C 3.582031 -3.492188 3.890625 -2.867188 4.421875 -2.359375 C 4.960938 -1.847656 5.75 -1.59375 6.78125 -1.59375 C 7.769531 -1.59375 8.546875 -1.835938 9.109375 -2.328125 C 9.679688 -2.828125 9.96875 -3.460938 9.96875 -4.234375 C 9.96875 -4.835938 9.800781 -5.328125 9.46875 -5.703125 C 9.132812 -6.085938 8.71875 -6.378906 8.21875 -6.578125 C 7.71875 -6.773438 7.039062 -6.988281 6.1875 -7.21875 C 5.144531 -7.488281 4.304688 -7.757812 3.671875 -8.03125 C 3.046875 -8.3125 2.507812 -8.742188 2.0625 -9.328125 C 1.613281 -9.910156 1.390625 -10.691406 1.390625 -11.671875 C 1.390625 -12.535156 1.609375 -13.300781 2.046875 -13.96875 C 2.484375 -14.644531 3.097656 -15.164062 3.890625 -15.53125 C 4.691406 -15.894531 5.609375 -16.078125 6.640625 -16.078125 C 8.128906 -16.078125 9.347656 -15.703125 10.296875 -14.953125 C 11.242188 -14.210938 11.78125 -13.226562 11.90625 -12 L 9.625 -12 C 9.550781 -12.601562 9.234375 -13.132812 8.671875 -13.59375 C 8.109375 -14.0625 7.363281 -14.296875 6.4375 -14.296875 C 5.570312 -14.296875 4.863281 -14.070312 4.3125 -13.625 C 3.769531 -13.175781 3.5 -12.550781 3.5 -11.75 C 3.5 -11.164062 3.660156 -10.691406 3.984375 -10.328125 C 4.316406 -9.972656 4.722656 -9.695312 5.203125 -9.5 C 5.679688 -9.3125 6.351562 -9.097656 7.21875 -8.859375 C 8.257812 -8.566406 9.097656 -8.28125 9.734375 -8 C 10.378906 -7.71875 10.925781 -7.285156 11.375 -6.703125 C 11.832031 -6.117188 12.0625 -5.328125 12.0625 -4.328125 C 12.0625 -3.554688 11.859375 -2.828125 11.453125 -2.140625 C 11.046875 -1.453125 10.4375 -0.894531 9.625 -0.46875 C 8.820312 -0.0507812 7.875 0.15625 6.78125 0.15625 Z M 6.78125 0.15625 "/></g></g></g></svg>