<svg xmlns="http://www.w3.org/2000/svg" xmlns:xlink="http://www.w3.org/1999/xlink" width="500" zoomAndPan="magnify" viewBox="0 0 375 149.999998" height="200" preserveAspectRatio="xMidYMid meet" version="1.0"><defs><g/><clipPath id="95db21d7eb"><path d="M 18.761719 32.058594 L 93.589844 32.058594 L 93.589844 97.21875 L 18.761719 97.21875 Z M 18.761719 32.058594 " clip-rule="nonzero"/></clipPath><clipPath id="18723fd5a5"><path d="M 23.261719 32.058594 L 89.066406 32.058594 C 91.550781 32.058594 93.566406 34.074219 93.566406 36.558594 L 93.566406 92.71875 C 93.566406 95.203125 91.550781 97.21875 89.066406 97.21875 L 23.261719 97.21875 C 20.777344 97.21875 18.761719 95.203125 18.761719 92.71875 L 18.761719 36.558594 C 18.761719 34.074219 20.777344 32.058594 23.261719 32.058594 Z M 23.261719 32.058594 " clip-rule="nonzero"/></clipPath><clipPath id="c474db6ee8"><path d="M 0.761719 0.0585938 L 75.589844 0.0585938 L 75.589844 65.21875 L 0.761719 65.21875 Z M 0.761719 0.0585938 " clip-rule="nonzero"/></clipPath><clipPath id="6fc0b79f8b"><path d="M 5.261719 0.0585938 L 71.066406 0.0585938 C 73.550781 0.0585938 75.566406 2.074219 75.566406 4.558594 L 75.566406 60.71875 C 75.566406 63.203125 73.550781 65.21875 71.066406 65.21875 L 5.261719 65.21875 C 2.777344 65.21875 0.761719 63.203125 0.761719 60.71875 L 0.761719 4.558594 C 0.761719 2.074219 2.777344 0.0585938 5.261719 0.0585938 Z M 5.261719 0.0585938 " clip-rule="nonzero"/></clipPath><clipPath id="1f7676a0a0"><rect x="0" width="76" y="0" height="66"/></clipPath><clipPath id="18bb7c537f"><path d="M 27 82 L 52 82 L 52 111 L 27 111 Z M 27 82 " clip-rule="nonzero"/></clipPath><clipPath id="8693ffeabd"><path d="M 40.589844 116.949219 L 15.859375 103.652344 L 27.59375 81.824219 L 52.328125 95.121094 Z M 40.589844 116.949219 " clip-rule="nonzero"/></clipPath><clipPath id="7d39a4b353"><path d="M 27.828125 109.515625 L 27.144531 83.058594 C 27.136719 82.75 27.292969 82.457031 27.558594 82.292969 C 27.820312 82.132812 28.152344 82.121094 28.425781 82.269531 L 51.535156 94.695312 C 51.808594 94.839844 51.984375 95.121094 51.992188 95.433594 C 52.003906 95.742188 51.847656 96.035156 51.582031 96.199219 L 29.136719 110.21875 C 28.875 110.382812 28.546875 110.394531 28.277344 110.246094 C 28.007812 110.101562 27.835938 109.824219 27.828125 109.515625 Z M 27.828125 109.515625 " clip-rule="nonzero"/></clipPath><clipPath id="4892fbfb94"><path d="M 0.121094 0.078125 L 25 0.078125 L 25 28.398438 L 0.121094 28.398438 Z M 0.121094 0.078125 " clip-rule="nonzero"/></clipPath><clipPath id="869d18872b"><path d="M 13.589844 34.949219 L -11.140625 21.652344 L 0.59375 -0.175781 L 25.328125 13.121094 Z M 13.589844 34.949219 " clip-rule="nonzero"/></clipPath><clipPath id="621d09e22b"><path d="M 0.828125 27.515625 L 0.144531 1.058594 C 0.136719 0.75 0.292969 0.457031 0.558594 0.292969 C 0.820312 0.132812 1.152344 0.121094 1.425781 0.269531 L 24.535156 12.695312 C 24.808594 12.839844 24.984375 13.121094 24.992188 13.433594 C 25.003906 13.742188 24.847656 14.035156 24.582031 14.199219 L 2.136719 28.21875 C 1.875 28.382812 1.546875 28.394531 1.277344 28.246094 C 1.007812 28.101562 0.835938 27.824219 0.828125 27.515625 Z M 0.828125 27.515625 " clip-rule="nonzero"/></clipPath><clipPath id="d5ff5e9095"><rect x="0" width="25" y="0" height="29"/></clipPath><clipPath id="cd7ca4a879"><path d="M 27.089844 46.945312 L 85.589844 46.945312 L 85.589844 82 L 27.089844 82 Z M 27.089844 46.945312 " clip-rule="nonzero"/></clipPath><clipPath id="e42ae223a5"><rect x="0" width="261" y="0" height="77"/></clipPath></defs><g clip-path="url(#95db21d7eb)"><g clip-path="url(#18723fd5a5)"><g transform="matrix(1, 0, 0, 1, 18, 32)"><g clip-path="url(#1f7676a0a0)"><g clip-path="url(#c474db6ee8)"><g clip-path="url(#6fc0b79f8b)"><path fill="#ffffff" d="M 0.761719 0.0585938 L 75.589844 0.0585938 L 75.589844 65.21875 L 0.761719 65.21875 Z M 0.761719 0.0585938 " fill-opacity="1" fill-rule="nonzero"/></g></g></g></g></g></g><g clip-path="url(#18bb7c537f)"><g clip-path="url(#8693ffeabd)"><g clip-path="url(#7d39a4b353)"><g transform="matrix(1, 0, 0, 1, 27, 82)"><g clip-path="url(#d5ff5e9095)"><g clip-path="url(#4892fbfb94)"><g clip-path="url(#869d18872b)"><g clip-path="url(#621d09e22b)"><path fill="#ffffff" d="M 13.742188 35.9375 L -12.046875 22.070312 L 0.0664062 -0.460938 L 25.855469 13.40625 Z M 13.742188 35.9375 " fill-opacity="1" fill-rule="nonzero"/></g></g></g></g></g></g></g></g><g clip-path="url(#cd7ca4a879)"><path fill="#f87060" d="M 28.324219 80.691406 C 29.453125 81.816406 31.277344 81.816406 32.402344 80.691406 L 47.773438 65.316406 L 58.710938 75.042969 C 59.878906 76.078125 61.660156 76 62.730469 74.859375 L 79.363281 57.117188 L 79.363281 59.917969 C 79.363281 61.507812 80.652344 62.800781 82.242188 62.800781 C 83.835938 62.800781 85.125 61.507812 85.125 59.917969 L 85.125 49.828125 C 85.125 48.238281 83.835938 46.945312 82.242188 46.945312 L 72.15625 46.945312 C 70.5625 46.945312 69.273438 48.238281 69.273438 49.828125 C 69.273438 51.421875 70.5625 52.710938 72.15625 52.710938 L 75.589844 52.710938 L 60.445312 68.867188 L 49.570312 59.203125 C 48.429688 58.191406 46.699219 58.242188 45.621094 59.320312 L 28.324219 76.613281 C 27.199219 77.738281 27.199219 79.5625 28.324219 80.691406 Z M 28.324219 80.691406 " fill-opacity="1" fill-rule="evenodd"/></g><g transform="matrix(1, 0, 0, 1, 102, 29)"><g clip-path="url(#e42ae223a5)"><g fill="#ffffff" fill-opacity="1"><g transform="translate(0.647656, 56.590335)"><g><path d="M 36.578125 -38.328125 L 36.578125 0 L 27.25 0 L 27.25 -15.78125 L 12.71875 -15.78125 L 12.71875 0 L 3.390625 0 L 3.390625 -38.328125 L 12.71875 -38.328125 L 12.71875 -23.3125 L 27.25 -23.3125 L 27.25 -38.328125 Z M 36.578125 -38.328125 "/></g></g></g><g fill="#ffffff" fill-opacity="1"><g transform="translate(40.558924, 56.590335)"><g><path d="M 32.09375 -15.71875 C 32.09375 -14.84375 32.039062 -13.9375 31.9375 -13 L 10.8125 -13 C 10.957031 -11.101562 11.566406 -9.65625 12.640625 -8.65625 C 13.710938 -7.65625 15.03125 -7.15625 16.59375 -7.15625 C 18.925781 -7.15625 20.546875 -8.132812 21.453125 -10.09375 L 31.390625 -10.09375 C 30.878906 -8.09375 29.957031 -6.289062 28.625 -4.6875 C 27.300781 -3.09375 25.640625 -1.835938 23.640625 -0.921875 C 21.640625 -0.015625 19.398438 0.4375 16.921875 0.4375 C 13.941406 0.4375 11.285156 -0.195312 8.953125 -1.46875 C 6.617188 -2.75 4.796875 -4.570312 3.484375 -6.9375 C 2.179688 -9.300781 1.53125 -12.066406 1.53125 -15.234375 C 1.53125 -18.398438 2.175781 -21.164062 3.46875 -23.53125 C 4.757812 -25.894531 6.566406 -27.710938 8.890625 -28.984375 C 11.222656 -30.265625 13.898438 -30.90625 16.921875 -30.90625 C 19.867188 -30.90625 22.488281 -30.285156 24.78125 -29.046875 C 27.070312 -27.804688 28.863281 -26.039062 30.15625 -23.75 C 31.445312 -21.457031 32.09375 -18.78125 32.09375 -15.71875 Z M 22.546875 -18.1875 C 22.546875 -19.78125 22 -21.050781 20.90625 -22 C 19.8125 -22.945312 18.445312 -23.421875 16.8125 -23.421875 C 15.25 -23.421875 13.929688 -22.960938 12.859375 -22.046875 C 11.785156 -21.140625 11.117188 -19.851562 10.859375 -18.1875 Z M 22.546875 -18.1875 "/></g></g></g><g fill="#ffffff" fill-opacity="1"><g transform="translate(74.191404, 56.590335)"><g><path d="M 34.5 -30.46875 L 15.390625 14.46875 L 5.34375 14.46875 L 12.34375 -1.03125 L -0.046875 -30.46875 L 10.375 -30.46875 L 17.421875 -11.40625 L 24.40625 -30.46875 Z M 34.5 -30.46875 "/></g></g></g><g fill="#ffffff" fill-opacity="1"><g transform="translate(108.697458, 56.590335)"><g><path d="M 17.25 0.375 C 14.445312 0.375 11.9375 -0.078125 9.71875 -0.984375 C 7.5 -1.890625 5.722656 -3.234375 4.390625 -5.015625 C 3.066406 -6.804688 2.367188 -8.957031 2.296875 -11.46875 L 12.234375 -11.46875 C 12.378906 -10.039062 12.867188 -8.953125 13.703125 -8.203125 C 14.535156 -7.460938 15.628906 -7.09375 16.984375 -7.09375 C 18.359375 -7.09375 19.445312 -7.410156 20.25 -8.046875 C 21.050781 -8.691406 21.453125 -9.578125 21.453125 -10.703125 C 21.453125 -11.648438 21.132812 -12.429688 20.5 -13.046875 C 19.863281 -13.660156 19.082031 -14.164062 18.15625 -14.5625 C 17.226562 -14.96875 15.90625 -15.425781 14.1875 -15.9375 C 11.71875 -16.707031 9.695312 -17.472656 8.125 -18.234375 C 6.5625 -18.992188 5.21875 -20.117188 4.09375 -21.609375 C 2.96875 -23.109375 2.40625 -25.054688 2.40625 -27.453125 C 2.40625 -31.023438 3.695312 -33.820312 6.28125 -35.84375 C 8.863281 -37.863281 12.226562 -38.875 16.375 -38.875 C 20.601562 -38.875 24.007812 -37.863281 26.59375 -35.84375 C 29.175781 -33.820312 30.554688 -31.007812 30.734375 -27.40625 L 20.640625 -27.40625 C 20.566406 -28.644531 20.109375 -29.617188 19.265625 -30.328125 C 18.429688 -31.035156 17.359375 -31.390625 16.046875 -31.390625 C 14.921875 -31.390625 14.007812 -31.085938 13.3125 -30.484375 C 12.625 -29.890625 12.28125 -29.023438 12.28125 -27.890625 C 12.28125 -26.660156 12.863281 -25.695312 14.03125 -25 C 15.195312 -24.3125 17.015625 -23.566406 19.484375 -22.765625 C 21.960938 -21.929688 23.972656 -21.128906 25.515625 -20.359375 C 27.066406 -19.597656 28.40625 -18.488281 29.53125 -17.03125 C 30.664062 -15.570312 31.234375 -13.695312 31.234375 -11.40625 C 31.234375 -9.226562 30.675781 -7.242188 29.5625 -5.453125 C 28.445312 -3.671875 26.832031 -2.253906 24.71875 -1.203125 C 22.613281 -0.148438 20.125 0.375 17.25 0.375 Z M 17.25 0.375 "/></g></g></g><g fill="#ffffff" fill-opacity="1"><g transform="translate(142.275344, 56.590335)"><g><path d="M 1.53125 -15.28125 C 1.53125 -18.414062 2.117188 -21.164062 3.296875 -23.53125 C 4.484375 -25.894531 6.09375 -27.710938 8.125 -28.984375 C 10.164062 -30.265625 12.441406 -30.90625 14.953125 -30.90625 C 17.109375 -30.90625 18.992188 -30.46875 20.609375 -29.59375 C 22.222656 -28.71875 23.46875 -27.570312 24.34375 -26.15625 L 24.34375 -30.46875 L 33.6875 -30.46875 L 33.6875 0 L 24.34375 0 L 24.34375 -4.3125 C 23.4375 -2.894531 22.171875 -1.75 20.546875 -0.875 C 18.929688 0 17.050781 0.4375 14.90625 0.4375 C 12.425781 0.4375 10.164062 -0.207031 8.125 -1.5 C 6.09375 -2.789062 4.484375 -4.628906 3.296875 -7.015625 C 2.117188 -9.398438 1.53125 -12.15625 1.53125 -15.28125 Z M 24.34375 -15.234375 C 24.34375 -17.554688 23.695312 -19.390625 22.40625 -20.734375 C 21.113281 -22.085938 19.539062 -22.765625 17.6875 -22.765625 C 15.832031 -22.765625 14.257812 -22.097656 12.96875 -20.765625 C 11.675781 -19.441406 11.03125 -17.613281 11.03125 -15.28125 C 11.03125 -12.957031 11.675781 -11.113281 12.96875 -9.75 C 14.257812 -8.382812 15.832031 -7.703125 17.6875 -7.703125 C 19.539062 -7.703125 21.113281 -8.375 22.40625 -9.71875 C 23.695312 -11.0625 24.34375 -12.898438 24.34375 -15.234375 Z M 24.34375 -15.234375 "/></g></g></g><g fill="#ffffff" fill-opacity="1"><g transform="translate(179.347514, 56.590335)"><g><path d="M 12.71875 -40.40625 L 12.71875 0 L 3.390625 0 L 3.390625 -40.40625 Z M 12.71875 -40.40625 "/></g></g></g><g fill="#ffffff" fill-opacity="1"><g transform="translate(195.453982, 56.590335)"><g><path d="M 32.09375 -15.71875 C 32.09375 -14.84375 32.039062 -13.9375 31.9375 -13 L 10.8125 -13 C 10.957031 -11.101562 11.566406 -9.65625 12.640625 -8.65625 C 13.710938 -7.65625 15.03125 -7.15625 16.59375 -7.15625 C 18.925781 -7.15625 20.546875 -8.132812 21.453125 -10.09375 L 31.390625 -10.09375 C 30.878906 -8.09375 29.957031 -6.289062 28.625 -4.6875 C 27.300781 -3.09375 25.640625 -1.835938 23.640625 -0.921875 C 21.640625 -0.015625 19.398438 0.4375 16.921875 0.4375 C 13.941406 0.4375 11.285156 -0.195312 8.953125 -1.46875 C 6.617188 -2.75 4.796875 -4.570312 3.484375 -6.9375 C 2.179688 -9.300781 1.53125 -12.066406 1.53125 -15.234375 C 1.53125 -18.398438 2.175781 -21.164062 3.46875 -23.53125 C 4.757812 -25.894531 6.566406 -27.710938 8.890625 -28.984375 C 11.222656 -30.265625 13.898438 -30.90625 16.921875 -30.90625 C 19.867188 -30.90625 22.488281 -30.285156 24.78125 -29.046875 C 27.070312 -27.804688 28.863281 -26.039062 30.15625 -23.75 C 31.445312 -21.457031 32.09375 -18.78125 32.09375 -15.71875 Z M 22.546875 -18.1875 C 22.546875 -19.78125 22 -21.050781 20.90625 -22 C 19.8125 -22.945312 18.445312 -23.421875 16.8125 -23.421875 C 15.25 -23.421875 13.929688 -22.960938 12.859375 -22.046875 C 11.785156 -21.140625 11.117188 -19.851562 10.859375 -18.1875 Z M 22.546875 -18.1875 "/></g></g></g><g fill="#ffffff" fill-opacity="1"><g transform="translate(229.086462, 56.590335)"><g><path d="M 15.78125 0.4375 C 13.125 0.4375 10.753906 -0.015625 8.671875 -0.921875 C 6.597656 -1.835938 4.960938 -3.085938 3.765625 -4.671875 C 2.566406 -6.253906 1.894531 -8.023438 1.75 -9.984375 L 10.96875 -9.984375 C 11.082031 -8.929688 11.570312 -8.078125 12.4375 -7.421875 C 13.3125 -6.765625 14.390625 -6.4375 15.671875 -6.4375 C 16.835938 -6.4375 17.738281 -6.664062 18.375 -7.125 C 19.007812 -7.582031 19.328125 -8.175781 19.328125 -8.90625 C 19.328125 -9.769531 18.867188 -10.410156 17.953125 -10.828125 C 17.046875 -11.253906 15.578125 -11.722656 13.546875 -12.234375 C 11.359375 -12.742188 9.535156 -13.28125 8.078125 -13.84375 C 6.617188 -14.40625 5.363281 -15.296875 4.3125 -16.515625 C 3.257812 -17.734375 2.734375 -19.378906 2.734375 -21.453125 C 2.734375 -23.203125 3.210938 -24.796875 4.171875 -26.234375 C 5.140625 -27.671875 6.5625 -28.804688 8.4375 -29.640625 C 10.3125 -30.484375 12.539062 -30.90625 15.125 -30.90625 C 18.945312 -30.90625 21.957031 -29.957031 24.15625 -28.0625 C 26.351562 -26.164062 27.617188 -23.65625 27.953125 -20.53125 L 19.328125 -20.53125 C 19.179688 -21.582031 18.71875 -22.414062 17.9375 -23.03125 C 17.15625 -23.65625 16.125 -23.96875 14.84375 -23.96875 C 13.757812 -23.96875 12.925781 -23.757812 12.34375 -23.34375 C 11.757812 -22.925781 11.46875 -22.351562 11.46875 -21.625 C 11.46875 -20.75 11.929688 -20.09375 12.859375 -19.65625 C 13.785156 -19.21875 15.234375 -18.78125 17.203125 -18.34375 C 19.453125 -17.757812 21.285156 -17.1875 22.703125 -16.625 C 24.128906 -16.0625 25.378906 -15.148438 26.453125 -13.890625 C 27.523438 -12.640625 28.078125 -10.957031 28.109375 -8.84375 C 28.109375 -7.0625 27.609375 -5.46875 26.609375 -4.0625 C 25.609375 -2.664062 24.171875 -1.566406 22.296875 -0.765625 C 20.421875 0.0351562 18.25 0.4375 15.78125 0.4375 Z M 15.78125 0.4375 "/></g></g></g></g></g></svg>