<svg xmlns="http://www.w3.org/2000/svg" xmlns:xlink="http://www.w3.org/1999/xlink" width="1024" zoomAndPan="magnify" viewBox="0 0 768 239.999995" height="320" preserveAspectRatio="xMidYMid meet" version="1.0"><defs><g/><clipPath id="2a8c1bb1fe"><path d="M 2 3.335938 L 766 3.335938 L 766 166.835938 L 2 166.835938 Z M 2 3.335938 " clip-rule="nonzero"/></clipPath></defs><g clip-path="url(#2a8c1bb1fe)"><path fill="#025291" d="M 4.683594 87.394531 L 9.382812 87.707031 C 9.910156 87.738281 10.425781 87.761719 10.953125 87.785156 L 14.085938 87.929688 C 15.128906 87.964844 16.171875 87.980469 17.214844 88.011719 C 19.300781 88.085938 21.394531 88.0625 23.472656 88.082031 C 23.992188 88.085938 24.515625 88.074219 25.035156 88.0625 L 28.160156 88.011719 L 28.941406 87.992188 L 29.722656 87.964844 C 31.796875 87.871094 33.875 87.820312 35.945312 87.660156 C 36.980469 87.589844 38.019531 87.539062 39.050781 87.453125 L 42.144531 87.183594 C 42.664062 87.136719 43.175781 87.101562 43.695312 87.042969 L 45.234375 86.867188 L 48.316406 86.519531 L 51.386719 86.105469 L 52.917969 85.894531 L 54.445312 85.644531 L 57.5 85.148438 L 60.527344 84.578125 L 62.050781 84.292969 C 62.550781 84.199219 63.050781 84.078125 63.554688 83.972656 L 66.566406 83.320312 C 67.066406 83.222656 67.5625 83.085938 68.0625 82.964844 L 69.554688 82.597656 C 70.546875 82.351562 71.558594 82.125 72.515625 81.847656 L 75.410156 81.046875 L 76.132812 80.847656 L 76.898438 80.617188 L 78.429688 80.148438 L 80.71875 79.449219 L 81.355469 79.230469 L 84.273438 78.226562 L 87.195312 77.230469 C 87.683594 77.074219 88.160156 76.886719 88.644531 76.699219 L 90.089844 76.148438 L 92.980469 75.050781 L 94.425781 74.496094 C 94.910156 74.316406 95.386719 74.109375 95.863281 73.910156 L 101.597656 71.53125 L 107.292969 68.996094 C 108.242188 68.589844 109.183594 68.132812 110.128906 67.691406 L 112.960938 66.359375 L 114.375 65.691406 L 115.082031 65.359375 L 115.785156 65.011719 L 118.613281 63.628906 L 121.433594 62.25 C 122.371094 61.78125 123.308594 61.300781 124.246094 60.828125 L 127.066406 59.40625 C 128.007812 58.933594 128.945312 58.460938 129.882812 57.972656 L 135.515625 55.066406 L 146.851562 49.183594 L 152.5625 46.253906 L 155.429688 44.785156 L 158.3125 43.335938 L 161.207031 41.894531 L 162.652344 41.171875 L 164.117188 40.46875 L 169.980469 37.652344 L 175.917969 34.9375 C 176.894531 34.476562 177.933594 34.046875 178.945312 33.601562 L 182.015625 32.285156 L 183.550781 31.632812 L 184.320312 31.308594 L 185.058594 31.011719 L 188.023438 29.832031 L 190.996094 28.65625 L 191.371094 28.511719 L 191.871094 28.324219 L 192.632812 28.039062 L 194.160156 27.480469 L 197.21875 26.355469 L 198.746094 25.789062 C 199.253906 25.609375 199.773438 25.433594 200.285156 25.253906 L 206.4375 23.121094 L 212.636719 21.109375 C 213.15625 20.941406 213.671875 20.773438 214.195312 20.609375 L 215.75 20.136719 L 218.875 19.191406 C 219.910156 18.878906 220.953125 18.558594 221.996094 18.253906 L 225.136719 17.375 C 227.230469 16.785156 229.320312 16.1875 231.429688 15.65625 L 236.167969 14.433594 L 236.960938 14.226562 L 237.753906 14.035156 L 244.105469 12.53125 C 261.089844 8.710938 278.339844 5.964844 295.714844 4.574219 L 298.972656 4.304688 L 299.789062 4.242188 L 300.617188 4.195312 L 305.5625 3.898438 C 306.660156 3.832031 307.777344 3.757812 308.824219 3.726562 L 315.210938 3.496094 L 315.703125 3.476562 L 316.109375 3.472656 L 316.921875 3.453125 L 318.546875 3.429688 L 321.792969 3.371094 C 323.953125 3.320312 326.121094 3.335938 328.289062 3.335938 C 330.457031 3.34375 332.625 3.320312 334.792969 3.382812 L 341.289062 3.511719 L 347.792969 3.761719 L 349.417969 3.828125 C 349.960938 3.851562 350.5 3.890625 351.042969 3.921875 L 354.292969 4.117188 L 357.539062 4.3125 C 358.082031 4.339844 358.625 4.378906 359.167969 4.425781 L 360.792969 4.5625 C 362.953125 4.742188 365.117188 4.898438 367.285156 5.097656 L 373.761719 5.777344 L 375.382812 5.949219 L 377.003906 6.15625 L 383.472656 6.996094 C 384.550781 7.148438 385.621094 7.324219 386.699219 7.488281 L 389.921875 7.992188 L 391.535156 8.242188 L 392.339844 8.371094 L 393.144531 8.523438 L 399.570312 9.707031 C 400.644531 9.886719 401.703125 10.125 402.769531 10.351562 L 405.96875 11.035156 L 409.164062 11.722656 L 412.339844 12.503906 L 415.519531 13.285156 L 417.105469 13.675781 C 417.636719 13.804688 418.160156 13.960938 418.683594 14.105469 L 424.988281 15.859375 L 425.777344 16.085938 L 428.125 16.820312 L 431.246094 17.800781 L 432.808594 18.296875 C 433.328125 18.464844 433.851562 18.609375 434.371094 18.800781 L 437.503906 19.910156 L 440.632812 21.015625 L 442.195312 21.570312 L 443.683594 22.152344 L 449.625 24.496094 L 450.101562 24.683594 L 450.476562 24.84375 L 451.234375 25.171875 L 452.738281 25.824219 L 455.75 27.136719 C 456.765625 27.554688 457.742188 28.03125 458.734375 28.492188 L 461.6875 29.890625 C 463.675781 30.792969 465.597656 31.808594 467.539062 32.777344 C 468.503906 33.269531 469.484375 33.742188 470.445312 34.25 L 473.308594 35.769531 C 480.953125 39.820312 488.386719 44.121094 495.765625 48.394531 C 503.140625 52.675781 510.449219 56.921875 517.847656 60.914062 C 519.691406 61.941406 521.554688 62.882812 523.414062 63.863281 C 524.347656 64.339844 525.265625 64.84375 526.203125 65.304688 L 529.015625 66.691406 L 531.828125 68.070312 C 532.765625 68.519531 533.714844 68.9375 534.664062 69.375 L 537.503906 70.675781 C 538.453125 71.125 539.398438 71.484375 540.339844 71.894531 L 543.179688 73.074219 L 544.59375 73.664062 C 545.085938 73.855469 545.589844 74.039062 546.085938 74.222656 L 549.082031 75.34375 L 550.574219 75.894531 L 551.324219 76.175781 C 551.464844 76.226562 551.335938 76.183594 551.417969 76.210938 L 551.597656 76.269531 L 551.964844 76.390625 C 555.8125 77.726562 559.792969 78.816406 563.820312 79.789062 C 571.882812 81.734375 580.191406 83.117188 588.578125 84.4375 C 592.769531 85.101562 596.988281 85.742188 601.21875 86.4375 L 602.808594 86.695312 L 604.40625 86.96875 C 605.464844 87.148438 606.546875 87.324219 607.585938 87.515625 L 613.875 88.667969 C 622.210938 90.183594 630.609375 91.582031 639.011719 93.039062 C 655.824219 95.953125 672.699219 99.066406 689.28125 103.617188 C 697.566406 105.898438 705.785156 108.535156 713.777344 111.796875 C 717.777344 113.429688 721.714844 115.21875 725.5625 117.199219 L 726.285156 117.566406 L 727 117.949219 L 728.429688 118.726562 C 729.378906 119.242188 730.308594 119.796875 731.253906 120.328125 C 732.179688 120.894531 733.113281 121.441406 734.027344 122.023438 C 734.9375 122.617188 735.855469 123.1875 736.75 123.8125 L 738.089844 124.734375 L 739.40625 125.6875 C 740.292969 126.316406 741.140625 126.992188 742.003906 127.664062 C 742.4375 127.992188 742.851562 128.339844 743.269531 128.691406 L 744.523438 129.734375 L 745.738281 130.816406 C 746.148438 131.179688 746.554688 131.535156 746.945312 131.917969 L 748.128906 133.042969 L 748.421875 133.320312 L 749.277344 134.203125 C 749.648438 134.59375 750.039062 134.976562 750.40625 135.378906 L 751.503906 136.589844 C 751.683594 136.796875 751.871094 136.992188 752.042969 137.195312 L 752.570312 137.828125 L 753.613281 139.078125 L 754.609375 140.371094 C 754.941406 140.804688 755.277344 141.234375 755.582031 141.683594 L 756.519531 143.019531 C 756.683594 143.238281 756.828125 143.46875 756.972656 143.699219 L 757.417969 144.386719 L 757.855469 145.074219 C 758.007812 145.300781 758.152344 145.53125 758.285156 145.769531 L 759.105469 147.179688 C 759.242188 147.410156 759.386719 147.644531 759.507812 147.882812 L 760.644531 150.050781 L 761.339844 151.527344 C 761.566406 152.015625 761.804688 152.503906 762.003906 153.011719 L 762.625 154.515625 L 762.777344 154.894531 L 762.917969 155.273438 L 763.199219 156.042969 C 763.378906 156.550781 763.570312 157.054688 763.738281 157.570312 L 764.222656 159.125 L 764.46875 159.898438 C 764.542969 160.15625 764.609375 160.425781 764.679688 160.6875 L 765.089844 162.265625 L 765.195312 162.660156 C 765.230469 162.789062 765.253906 162.921875 765.285156 163.050781 L 765.789062 165.394531 C 765.890625 165.855469 765.605469 166.308594 765.148438 166.429688 C 764.679688 166.554688 764.199219 166.269531 764.078125 165.796875 L 763.679688 164.246094 L 763.484375 163.476562 C 763.449219 163.347656 763.417969 163.214844 763.382812 163.09375 L 763.269531 162.714844 L 762.8125 161.222656 C 762.738281 160.976562 762.671875 160.726562 762.585938 160.480469 L 762.324219 159.734375 L 761.800781 158.257812 C 761.613281 157.773438 761.410156 157.289062 761.214844 156.800781 L 760.917969 156.078125 L 760.773438 155.714844 L 760.609375 155.359375 L 759.957031 153.933594 C 759.75 153.453125 759.503906 152.996094 759.265625 152.527344 L 758.546875 151.136719 L 757.773438 149.777344 L 757.386719 149.101562 C 757.261719 148.875 757.113281 148.660156 756.972656 148.4375 L 756.140625 147.113281 C 756.007812 146.886719 755.855469 146.679688 755.710938 146.460938 L 755.261719 145.820312 L 754.820312 145.179688 C 754.671875 144.964844 754.519531 144.75 754.363281 144.546875 L 753.421875 143.296875 C 753.109375 142.878906 752.773438 142.480469 752.441406 142.082031 L 751.449219 140.878906 L 750.40625 139.714844 L 749.882812 139.136719 C 749.707031 138.945312 749.523438 138.757812 749.347656 138.574219 L 748.257812 137.449219 C 747.894531 137.082031 747.511719 136.726562 747.132812 136.363281 L 746.574219 135.820312 L 746.289062 135.554688 L 745.996094 135.296875 L 744.832031 134.253906 C 744.445312 133.90625 744.039062 133.578125 743.636719 133.246094 L 742.4375 132.25 L 741.195312 131.292969 C 740.785156 130.972656 740.375 130.652344 739.949219 130.351562 C 739.101562 129.738281 738.265625 129.121094 737.390625 128.550781 L 736.097656 127.675781 L 734.769531 126.835938 C 733.898438 126.265625 732.984375 125.746094 732.09375 125.203125 C 731.644531 124.9375 731.183594 124.6875 730.730469 124.429688 L 729.367188 123.660156 C 728.433594 123.175781 727.519531 122.675781 726.585938 122.203125 L 725.175781 121.503906 L 724.476562 121.15625 L 723.765625 120.816406 C 719.976562 119.023438 716.101562 117.414062 712.160156 115.953125 C 704.28125 113.03125 696.164062 110.71875 687.957031 108.75 C 679.753906 106.78125 671.445312 105.164062 663.101562 103.730469 C 654.75 102.296875 646.359375 101.058594 637.9375 99.863281 C 629.519531 98.667969 621.070312 97.527344 612.609375 96.234375 L 606.292969 95.265625 C 605.238281 95.101562 604.210938 94.96875 603.167969 94.816406 L 601.613281 94.601562 L 600.039062 94.390625 C 595.84375 93.832031 591.625 93.3125 587.390625 92.773438 C 583.148438 92.230469 578.894531 91.660156 574.628906 91.011719 C 570.363281 90.359375 566.085938 89.601562 561.808594 88.699219 C 557.53125 87.796875 553.253906 86.753906 549.019531 85.410156 L 548.617188 85.289062 L 548.417969 85.230469 C 548.371094 85.21875 548.113281 85.132812 548.132812 85.136719 L 547.378906 84.882812 L 545.867188 84.363281 L 542.839844 83.332031 C 542.339844 83.164062 541.839844 82.992188 541.332031 82.8125 L 539.78125 82.21875 L 536.6875 81.03125 C 534.597656 80.261719 532.621094 79.386719 530.609375 78.542969 C 529.609375 78.117188 528.601562 77.695312 527.609375 77.261719 L 521.6875 74.550781 C 520.703125 74.097656 519.742188 73.605469 518.769531 73.132812 C 516.828125 72.183594 514.867188 71.253906 512.960938 70.253906 C 505.261719 66.351562 497.738281 62.226562 490.273438 58.148438 C 482.8125 54.0625 475.375 50.046875 467.882812 46.28125 L 465.074219 44.871094 C 464.136719 44.40625 463.191406 43.96875 462.246094 43.519531 C 460.359375 42.636719 458.488281 41.703125 456.578125 40.882812 L 453.726562 39.621094 C 452.777344 39.199219 451.835938 38.765625 450.871094 38.394531 L 447.992188 37.222656 L 446.5625 36.640625 L 445.839844 36.347656 L 445.484375 36.195312 C 445.472656 36.195312 445.472656 36.195312 445.472656 36.191406 C 445.472656 36.195312 445.464844 36.195312 445.402344 36.167969 L 445.214844 36.097656 L 439.21875 33.902344 L 437.714844 33.347656 L 436.257812 32.871094 L 433.339844 31.917969 L 430.425781 30.964844 C 429.949219 30.792969 429.433594 30.667969 428.941406 30.515625 L 427.449219 30.082031 L 422.96875 28.777344 L 422.214844 28.558594 L 421.464844 28.363281 L 415.425781 26.816406 C 414.925781 26.691406 414.425781 26.546875 413.917969 26.4375 L 412.398438 26.097656 L 409.355469 25.417969 L 406.3125 24.742188 L 403.246094 24.152344 L 400.1875 23.558594 C 399.167969 23.367188 398.148438 23.15625 397.117188 23.003906 L 390.957031 22 L 390.183594 21.875 L 389.414062 21.769531 L 387.863281 21.558594 L 384.769531 21.144531 C 383.734375 21.003906 382.707031 20.855469 381.671875 20.730469 L 378.566406 20.398438 L 375.453125 20.0625 L 373.902344 19.890625 L 372.339844 19.765625 L 366.105469 19.246094 C 364.027344 19.105469 361.941406 19 359.855469 18.871094 L 358.292969 18.78125 C 357.773438 18.75 357.25 18.722656 356.730469 18.703125 L 350.464844 18.492188 C 349.941406 18.480469 349.421875 18.457031 348.898438 18.445312 L 341.0625 18.359375 L 334.792969 18.425781 C 332.699219 18.429688 330.609375 18.511719 328.515625 18.574219 C 326.425781 18.640625 324.332031 18.691406 322.238281 18.8125 L 316.058594 19.128906 L 309.683594 19.589844 C 308.605469 19.652344 307.601562 19.765625 306.570312 19.855469 L 303.507812 20.148438 L 301.96875 20.292969 L 301.203125 20.371094 L 300.429688 20.457031 L 297.328125 20.824219 C 280.796875 22.730469 264.417969 25.921875 248.253906 29.933594 C 240.175781 31.960938 232.152344 34.226562 224.183594 36.675781 L 221.199219 37.601562 L 219.707031 38.066406 L 218.214844 38.550781 L 212.273438 40.496094 L 206.351562 42.535156 C 205.863281 42.707031 205.367188 42.867188 204.871094 43.042969 L 203.402344 43.574219 L 200.453125 44.640625 L 198.980469 45.164062 L 198.246094 45.433594 L 198.058594 45.496094 C 198.054688 45.503906 197.820312 45.589844 197.996094 45.519531 L 197.621094 45.660156 L 194.644531 46.808594 L 190.914062 48.234375 L 190.203125 48.527344 L 188.792969 49.109375 L 185.972656 50.269531 C 185.035156 50.652344 184.097656 51.027344 183.136719 51.453125 L 177.414062 53.941406 L 171.691406 56.519531 L 170.257812 57.167969 L 168.832031 57.832031 L 163.109375 60.5 L 160.242188 61.859375 L 154.503906 64.585938 C 139.1875 71.898438 123.582031 79.398438 107.210938 85.539062 C 99.003906 88.582031 90.613281 91.234375 82.023438 93.347656 L 80.46875 93.726562 L 79.695312 93.914062 L 78.867188 94.089844 L 75.550781 94.789062 C 74.445312 95.03125 73.367188 95.203125 72.269531 95.398438 L 70.640625 95.691406 C 70.097656 95.785156 69.554688 95.894531 69.007812 95.96875 L 65.730469 96.460938 C 65.183594 96.535156 64.644531 96.628906 64.09375 96.691406 L 59.171875 97.277344 L 55.882812 97.574219 L 54.242188 97.71875 L 49.3125 98.035156 C 48.214844 98.085938 47.121094 98.113281 46.023438 98.15625 L 44.382812 98.214844 C 43.835938 98.238281 43.285156 98.230469 42.738281 98.242188 L 39.453125 98.273438 C 38.355469 98.285156 37.265625 98.242188 36.171875 98.230469 C 33.988281 98.21875 31.800781 98.109375 29.621094 98.023438 L 28.804688 97.988281 L 27.992188 97.933594 L 24.726562 97.714844 C 24.183594 97.679688 23.636719 97.644531 23.09375 97.589844 C 20.929688 97.386719 18.761719 97.21875 16.597656 96.949219 C 15.953125 96.875 15.3125 96.796875 14.664062 96.722656 C 15.078125 97.292969 15.503906 97.859375 15.882812 98.453125 C 17.152344 100.417969 18.253906 102.496094 19.128906 104.683594 C 20 106.867188 20.636719 109.152344 20.996094 111.476562 C 21.179688 112.640625 21.277344 113.8125 21.320312 114.984375 C 21.359375 116.15625 21.3125 117.320312 21.203125 118.480469 C 21.089844 119.632812 20.917969 120.78125 20.664062 121.90625 C 20.554688 122.464844 20.398438 123.019531 20.265625 123.574219 C 20.09375 124.121094 19.949219 124.675781 19.75 125.210938 C 19.453125 126.113281 19.097656 126.988281 18.726562 127.851562 C 19.324219 127.371094 19.9375 126.894531 20.566406 126.441406 C 20.984375 126.136719 21.398438 125.839844 21.820312 125.539062 C 22.238281 125.238281 22.664062 124.949219 23.089844 124.65625 L 23.726562 124.214844 C 23.941406 124.0625 24.148438 123.917969 24.367188 123.773438 L 25.648438 122.902344 L 26.289062 122.464844 L 26.941406 122.046875 C 27.371094 121.765625 27.804688 121.488281 28.242188 121.207031 C 29.109375 120.660156 29.984375 120.128906 30.84375 119.605469 C 31.941406 118.957031 33.03125 118.347656 34.113281 117.757812 C 35.316406 116.800781 36.550781 115.847656 37.855469 114.902344 C 39.707031 113.558594 41.65625 112.203125 43.699219 110.871094 C 44.21875 110.539062 44.738281 110.207031 45.257812 109.875 C 45.78125 109.546875 46.316406 109.222656 46.847656 108.890625 C 47.390625 108.570312 47.929688 108.242188 48.476562 107.917969 C 49.03125 107.601562 49.589844 107.28125 50.152344 106.960938 C 54.648438 104.417969 59.550781 102.007812 64.824219 99.886719 C 67.464844 98.820312 70.183594 97.816406 72.992188 96.878906 C 75.796875 95.941406 78.679688 95.085938 81.632812 94.285156 C 87.542969 92.703125 93.730469 91.414062 100.117188 90.363281 C 103.304688 89.839844 106.550781 89.378906 109.832031 88.964844 C 113.117188 88.558594 116.445312 88.203125 119.808594 87.886719 C 121.492188 87.730469 123.179688 87.589844 124.878906 87.457031 C 125.738281 87.394531 126.601562 87.328125 127.46875 87.265625 C 128.316406 87.207031 129.164062 87.152344 130.011719 87.101562 L 131.292969 87.019531 C 131.730469 87.003906 132.171875 86.980469 132.609375 86.960938 C 133.488281 86.921875 134.371094 86.878906 135.253906 86.84375 C 137.003906 86.796875 138.761719 86.722656 140.535156 86.710938 C 144.066406 86.640625 147.632812 86.683594 151.222656 86.78125 C 152.117188 86.808594 153.015625 86.839844 153.914062 86.863281 C 154.816406 86.902344 155.714844 86.945312 156.617188 86.984375 C 157.519531 87.027344 158.421875 87.085938 159.328125 87.136719 C 160.230469 87.1875 161.132812 87.242188 162.042969 87.3125 C 169.285156 87.8125 176.585938 88.605469 183.882812 89.609375 C 198.480469 91.601562 213.046875 94.375 227.539062 96.640625 C 231.167969 97.199219 234.777344 97.722656 238.40625 98.21875 C 242.058594 98.703125 245.707031 99.1875 249.347656 99.671875 C 252.992188 100.144531 256.628906 100.609375 260.25 101.046875 C 263.871094 101.496094 267.484375 101.925781 271.085938 102.332031 C 285.488281 103.984375 299.671875 105.324219 313.417969 106.214844 C 327.164062 107.113281 340.46875 107.566406 353.082031 107.527344 C 359.386719 107.503906 365.523438 107.363281 371.449219 107.113281 C 377.375 106.855469 383.097656 106.464844 388.582031 106.003906 C 394.066406 105.527344 399.308594 104.925781 404.292969 104.28125 C 409.265625 103.621094 413.96875 102.871094 418.386719 102.089844 C 422.792969 101.300781 426.90625 100.453125 430.699219 99.617188 C 431.644531 99.402344 432.570312 99.1875 433.480469 98.984375 C 434.382812 98.761719 435.269531 98.546875 436.136719 98.335938 C 437 98.132812 437.84375 97.917969 438.664062 97.707031 C 439.488281 97.492188 440.296875 97.300781 441.070312 97.082031 C 442.628906 96.664062 444.109375 96.273438 445.484375 95.871094 C 446.175781 95.671875 446.851562 95.488281 447.5 95.300781 C 448.140625 95.109375 448.761719 94.921875 449.371094 94.742188 C 450.574219 94.390625 451.675781 94.03125 452.695312 93.714844 C 453.714844 93.40625 454.632812 93.105469 455.457031 92.835938 C 456.28125 92.5625 457.015625 92.335938 457.636719 92.117188 C 458.261719 91.902344 458.792969 91.722656 459.21875 91.582031 C 460.0625 91.292969 460.503906 91.140625 460.503906 91.140625 C 460.503906 91.140625 460.085938 91.339844 459.269531 91.71875 C 458.460938 92.09375 457.253906 92.671875 455.664062 93.367188 C 454.871094 93.722656 453.976562 94.117188 452.992188 94.53125 C 452.007812 94.949219 450.9375 95.40625 449.765625 95.871094 C 449.183594 96.109375 448.570312 96.355469 447.949219 96.605469 C 447.316406 96.863281 446.660156 97.105469 445.984375 97.367188 C 444.636719 97.898438 443.191406 98.417969 441.660156 98.976562 C 435.542969 101.1875 428 103.597656 419.191406 105.824219 C 414.792969 106.953125 410.078125 108.015625 405.070312 109.011719 C 400.070312 110.019531 394.785156 110.917969 389.246094 111.722656 C 378.167969 113.324219 366.078125 114.476562 353.261719 115.066406 C 340.457031 115.648438 326.925781 115.667969 312.964844 115.148438 C 299 114.632812 284.609375 113.589844 270.042969 112.152344 C 266.398438 111.792969 262.746094 111.40625 259.085938 111.003906 C 255.425781 110.597656 251.761719 110.164062 248.089844 109.726562 C 246.253906 109.5 244.417969 109.273438 242.578125 109.046875 C 240.742188 108.8125 238.90625 108.582031 237.070312 108.339844 L 234.296875 107.972656 C 233.371094 107.851562 232.445312 107.730469 231.519531 107.59375 C 229.664062 107.339844 227.816406 107.058594 225.976562 106.78125 C 211.21875 104.523438 196.71875 101.699219 182.464844 99.640625 C 178.90625 99.117188 175.355469 98.644531 171.824219 98.230469 C 168.292969 97.816406 164.78125 97.445312 161.285156 97.160156 C 154.296875 96.570312 147.386719 96.25 140.582031 96.222656 C 138.878906 96.199219 137.191406 96.234375 135.5 96.238281 C 134.667969 96.257812 133.832031 96.28125 133.007812 96.296875 C 132.585938 96.308594 132.171875 96.3125 131.757812 96.324219 C 131.332031 96.335938 130.90625 96.355469 130.484375 96.371094 C 129.632812 96.402344 128.78125 96.4375 127.9375 96.472656 C 127.109375 96.507812 126.289062 96.542969 125.464844 96.582031 C 124.632812 96.625 123.800781 96.667969 122.972656 96.710938 C 122.144531 96.757812 121.316406 96.804688 120.496094 96.851562 C 117.195312 97.042969 113.945312 97.28125 110.746094 97.5625 C 107.542969 97.835938 104.390625 98.167969 101.285156 98.539062 C 98.183594 98.914062 95.136719 99.351562 92.144531 99.839844 C 89.15625 100.324219 86.230469 100.878906 83.375 101.488281 C 77.65625 102.71875 72.199219 104.1875 67.066406 105.917969 C 61.9375 107.652344 57.121094 109.617188 52.652344 111.75 C 50.417969 112.824219 48.269531 113.929688 46.207031 115.054688 C 44.144531 116.183594 42.171875 117.34375 40.285156 118.507812 C 38.398438 119.675781 36.585938 120.839844 34.871094 122.019531 C 33.148438 123.183594 31.511719 124.347656 29.960938 125.503906 C 28.402344 126.644531 26.9375 127.773438 25.539062 128.875 C 24.324219 129.835938 23.175781 130.769531 22.082031 131.679688 C 21.925781 131.84375 21.761719 132 21.597656 132.164062 C 20.910156 132.816406 20.265625 133.492188 19.597656 134.125 C 18.277344 135.402344 16.988281 136.621094 15.765625 137.78125 C 15.148438 138.355469 14.570312 138.941406 14.003906 139.5 C 13.71875 139.773438 13.429688 140.039062 13.160156 140.316406 C 12.890625 140.589844 12.625 140.855469 12.367188 141.117188 C 11.300781 142.160156 10.375 143.160156 9.507812 144.019531 C 9.285156 144.230469 9.097656 144.457031 8.902344 144.660156 C 8.703125 144.871094 8.511719 145.074219 8.328125 145.269531 C 7.957031 145.652344 7.613281 146 7.304688 146.324219 C 6.703125 146.976562 6.214844 147.492188 5.871094 147.835938 C 5.527344 148.179688 5.335938 148.363281 5.335938 148.363281 L 5.324219 148.375 C 5.257812 148.433594 5.171875 148.453125 5.078125 148.4375 C 4.9375 148.402344 4.851562 148.257812 4.886719 148.117188 C 4.886719 148.117188 4.945312 147.859375 5.085938 147.390625 C 5.210938 146.910156 5.429688 146.222656 5.730469 145.347656 C 5.886719 144.917969 6.085938 144.457031 6.296875 143.945312 C 6.523438 143.4375 6.746094 142.871094 7.03125 142.308594 C 7.316406 141.738281 7.636719 141.136719 7.972656 140.5 C 8.304688 139.859375 8.714844 139.230469 9.128906 138.5625 C 9.339844 138.222656 9.546875 137.882812 9.773438 137.539062 C 10.003906 137.203125 10.246094 136.863281 10.492188 136.515625 C 11 135.832031 11.492188 135.105469 12.078125 134.421875 C 12.460938 133.933594 12.886719 133.457031 13.3125 132.972656 C 13.761719 132.046875 14.191406 131.121094 14.570312 130.175781 C 14.664062 129.929688 14.769531 129.691406 14.855469 129.453125 L 15.125 128.71875 L 15.253906 128.359375 L 15.375 127.992188 L 15.613281 127.257812 C 15.90625 126.269531 16.179688 125.285156 16.367188 124.285156 C 16.476562 123.789062 16.539062 123.289062 16.628906 122.792969 C 16.691406 122.292969 16.765625 121.796875 16.800781 121.296875 C 16.902344 120.296875 16.929688 119.300781 16.902344 118.3125 C 16.894531 117.816406 16.855469 117.328125 16.820312 116.835938 C 16.765625 116.347656 16.722656 115.859375 16.644531 115.375 C 16.5 114.402344 16.300781 113.445312 16.042969 112.503906 C 15.789062 111.5625 15.472656 110.644531 15.105469 109.738281 C 14.746094 108.835938 14.324219 107.957031 13.871094 107.09375 C 12.957031 105.371094 11.859375 103.742188 10.625 102.210938 C 9.394531 100.683594 8.019531 99.261719 6.5625 97.941406 C 5.828125 97.28125 5.078125 96.652344 4.304688 96.058594 C 3.917969 95.765625 3.527344 95.476562 3.136719 95.203125 C 2.941406 95.0625 2.746094 94.933594 2.554688 94.804688 L 2.269531 94.617188 L 2.136719 94.539062 C 2.101562 94.515625 2.035156 94.480469 2.042969 94.484375 L 4.683594 87.394531 " fill-opacity="1" fill-rule="nonzero"/></g><g fill="#025291" fill-opacity="1"><g transform="translate(50.707036, 216.172853)"><g><path d="M 35.234375 -56.046875 L 48.03125 -56.046875 L 48.03125 0 L 35.234375 0 L 35.234375 -22.25 L 17.609375 -22.25 L 17.609375 0 L 4.796875 0 L 4.796875 -56.046875 L 17.609375 -56.046875 L 17.609375 -34.59375 L 35.234375 -34.59375 Z M 35.234375 -56.046875 "/></g></g></g><g fill="#025291" fill-opacity="1"><g transform="translate(103.540503, 216.172853)"><g><path d="M 42.4375 -56.046875 L 42.4375 -43.71875 L 28.015625 -43.71875 L 28.015625 0 L 15.21875 0 L 15.21875 -43.71875 L 0.796875 -43.71875 L 0.796875 -56.046875 Z M 42.4375 -56.046875 "/></g></g></g><g fill="#025291" fill-opacity="1"><g transform="translate(146.767879, 216.172853)"><g><path d="M 34.265625 0 L 23.703125 -18.421875 L 17.609375 -18.421875 L 17.609375 0 L 4.796875 0 L 4.796875 -56.046875 L 27.21875 -56.046875 C 30.789062 -56.046875 34.019531 -55.175781 36.90625 -53.4375 C 39.789062 -51.707031 42.097656 -49.398438 43.828125 -46.515625 C 45.566406 -43.628906 46.4375 -40.398438 46.4375 -36.828125 C 46.4375 -33.410156 45.488281 -30.234375 43.59375 -27.296875 C 41.695312 -24.359375 39.203125 -22.117188 36.109375 -20.578125 L 48.03125 0 Z M 17.609375 -44.03125 L 17.609375 -29.625 L 27.21875 -29.625 C 28.976562 -29.625 30.484375 -30.316406 31.734375 -31.703125 C 32.992188 -33.085938 33.625 -34.796875 33.625 -36.828125 C 33.625 -38.859375 32.992188 -40.566406 31.734375 -41.953125 C 30.484375 -43.335938 28.976562 -44.03125 27.21875 -44.03125 Z M 17.609375 -44.03125 "/></g></g></g><g fill="#025291" fill-opacity="1"><g transform="translate(216.011736, 216.172853)"><g><path d="M 40.4375 0 L 37.625 -8.8125 L 16.8125 -8.8125 L 14.015625 0 L 0 0 L 19.0625 -56.046875 L 35.390625 -56.046875 L 54.4375 0 Z M 20.65625 -20.8125 L 33.78125 -20.8125 L 27.21875 -41.390625 Z M 20.65625 -20.8125 "/></g></g></g><g fill="#025291" fill-opacity="1"><g transform="translate(270.446219, 216.172853)"><g><path d="M 26.015625 1.125 C 21.910156 1.125 18.226562 0.351562 14.96875 -1.1875 C 11.71875 -2.738281 9.144531 -4.941406 7.25 -7.796875 C 5.351562 -10.660156 4.40625 -14.09375 4.40625 -18.09375 L 4.40625 -56.046875 L 17.21875 -56.046875 L 17.21875 -19.21875 C 17.21875 -17.082031 17.828125 -15.238281 19.046875 -13.6875 C 20.273438 -12.144531 22.597656 -11.375 26.015625 -11.375 C 29.429688 -11.375 31.753906 -12.144531 32.984375 -13.6875 C 34.210938 -15.238281 34.828125 -17.082031 34.828125 -19.21875 L 34.828125 -56.046875 L 47.640625 -56.046875 L 47.640625 -18.09375 C 47.640625 -14.09375 46.691406 -10.660156 44.796875 -7.796875 C 42.898438 -4.941406 40.320312 -2.738281 37.0625 -1.1875 C 33.8125 0.351562 30.128906 1.125 26.015625 1.125 Z M 26.015625 1.125 "/></g></g></g><g fill="#025291" fill-opacity="1"><g transform="translate(322.479159, 216.172853)"><g><path d="M 42.4375 -56.046875 L 42.4375 -43.71875 L 28.015625 -43.71875 L 28.015625 0 L 15.21875 0 L 15.21875 -43.71875 L 0.796875 -43.71875 L 0.796875 -56.046875 Z M 42.4375 -56.046875 "/></g></g></g><g fill="#025291" fill-opacity="1"><g transform="translate(365.706558, 216.172853)"><g><path d="M 31.546875 1.125 C 27.546875 1.125 23.78125 0.390625 20.25 -1.078125 C 16.726562 -2.546875 13.632812 -4.597656 10.96875 -7.234375 C 8.300781 -9.878906 6.207031 -12.976562 4.6875 -16.53125 C 3.164062 -20.082031 2.40625 -23.910156 2.40625 -28.015625 C 2.40625 -32.128906 3.164062 -35.957031 4.6875 -39.5 C 6.207031 -43.050781 8.300781 -46.148438 10.96875 -48.796875 C 13.632812 -51.441406 16.726562 -53.5 20.25 -54.96875 C 23.78125 -56.4375 27.546875 -57.171875 31.546875 -57.171875 C 35.546875 -57.171875 39.304688 -56.4375 42.828125 -54.96875 C 46.359375 -53.5 49.457031 -51.441406 52.125 -48.796875 C 54.789062 -46.148438 56.882812 -43.050781 58.40625 -39.5 C 59.925781 -35.957031 60.6875 -32.128906 60.6875 -28.015625 C 60.6875 -23.910156 59.925781 -20.082031 58.40625 -16.53125 C 56.882812 -12.976562 54.789062 -9.878906 52.125 -7.234375 C 49.457031 -4.597656 46.359375 -2.546875 42.828125 -1.078125 C 39.304688 0.390625 35.546875 1.125 31.546875 1.125 Z M 31.546875 -11.375 C 34.585938 -11.375 37.347656 -12.066406 39.828125 -13.453125 C 42.304688 -14.835938 44.265625 -16.785156 45.703125 -19.296875 C 47.148438 -21.804688 47.875 -24.710938 47.875 -28.015625 C 47.875 -31.378906 47.148438 -34.300781 45.703125 -36.78125 C 44.265625 -39.269531 42.304688 -41.207031 39.828125 -42.59375 C 37.347656 -43.976562 34.585938 -44.671875 31.546875 -44.671875 C 28.503906 -44.671875 25.738281 -43.976562 23.25 -42.59375 C 20.769531 -41.207031 18.8125 -39.269531 17.375 -36.78125 C 15.9375 -34.300781 15.21875 -31.378906 15.21875 -28.015625 C 15.21875 -24.710938 15.9375 -21.804688 17.375 -19.296875 C 18.8125 -16.785156 20.769531 -14.835938 23.25 -13.453125 C 25.738281 -12.066406 28.503906 -11.375 31.546875 -11.375 Z M 31.546875 -11.375 "/></g></g></g><g fill="#025291" fill-opacity="1"><g transform="translate(428.786503, 216.172853)"><g><path d="M 31.546875 1.125 C 27.328125 1.125 23.441406 0.390625 19.890625 -1.078125 C 16.347656 -2.546875 13.265625 -4.597656 10.640625 -7.234375 C 8.023438 -9.878906 6 -12.976562 4.5625 -16.53125 C 3.125 -20.082031 2.40625 -23.910156 2.40625 -28.015625 C 2.40625 -32.128906 3.125 -35.957031 4.5625 -39.5 C 6 -43.050781 8.023438 -46.148438 10.640625 -48.796875 C 13.265625 -51.441406 16.347656 -53.5 19.890625 -54.96875 C 23.441406 -56.4375 27.328125 -57.171875 31.546875 -57.171875 C 36.617188 -57.171875 41.273438 -55.992188 45.515625 -53.640625 C 49.753906 -51.296875 53.101562 -48.144531 55.5625 -44.1875 L 44.515625 -37.796875 C 43.285156 -39.984375 41.519531 -41.675781 39.21875 -42.875 C 36.925781 -44.070312 34.367188 -44.671875 31.546875 -44.671875 C 28.234375 -44.671875 25.347656 -43.976562 22.890625 -42.59375 C 20.441406 -41.207031 18.550781 -39.269531 17.21875 -36.78125 C 15.882812 -34.300781 15.21875 -31.378906 15.21875 -28.015625 C 15.21875 -24.710938 15.882812 -21.804688 17.21875 -19.296875 C 18.550781 -16.785156 20.441406 -14.835938 22.890625 -13.453125 C 25.347656 -12.066406 28.234375 -11.375 31.546875 -11.375 C 34.367188 -11.375 36.941406 -11.984375 39.265625 -13.203125 C 41.585938 -14.429688 43.335938 -16.113281 44.515625 -18.25 L 55.5625 -11.84375 C 53.15625 -7.894531 49.832031 -4.742188 45.59375 -2.390625 C 41.351562 -0.046875 36.671875 1.125 31.546875 1.125 Z M 31.546875 1.125 "/></g></g></g><g fill="#025291" fill-opacity="1"><g transform="translate(486.342934, 216.172853)"><g><path d="M 17.609375 -12.328125 L 40.03125 -12.328125 L 40.03125 0 L 4.796875 0 L 4.796875 -56.046875 L 39.625 -56.046875 L 39.625 -43.71875 L 17.609375 -43.71875 L 17.609375 -34.421875 L 37.625 -34.421875 L 37.625 -22.25 L 17.609375 -22.25 Z M 17.609375 -12.328125 "/></g></g></g><g fill="#025291" fill-opacity="1"><g transform="translate(528.769842, 216.172853)"><g><path d="M 36.03125 -56.046875 L 48.84375 -56.046875 L 48.84375 0 L 39.234375 0 L 17.609375 -30.421875 L 17.609375 0 L 4.796875 0 L 4.796875 -56.046875 L 14.40625 -56.046875 L 36.03125 -25.625 Z M 36.03125 -56.046875 "/></g></g></g><g fill="#025291" fill-opacity="1"><g transform="translate(582.40381, 216.172853)"><g><path d="M 42.4375 -56.046875 L 42.4375 -43.71875 L 28.015625 -43.71875 L 28.015625 0 L 15.21875 0 L 15.21875 -43.71875 L 0.796875 -43.71875 L 0.796875 -56.046875 Z M 42.4375 -56.046875 "/></g></g></g><g fill="#025291" fill-opacity="1"><g transform="translate(625.631164, 216.172853)"><g><path d="M 34.265625 0 L 23.703125 -18.421875 L 17.609375 -18.421875 L 17.609375 0 L 4.796875 0 L 4.796875 -56.046875 L 27.21875 -56.046875 C 30.789062 -56.046875 34.019531 -55.175781 36.90625 -53.4375 C 39.789062 -51.707031 42.097656 -49.398438 43.828125 -46.515625 C 45.566406 -43.628906 46.4375 -40.398438 46.4375 -36.828125 C 46.4375 -33.410156 45.488281 -30.234375 43.59375 -27.296875 C 41.695312 -24.359375 39.203125 -22.117188 36.109375 -20.578125 L 48.03125 0 Z M 17.609375 -44.03125 L 17.609375 -29.625 L 27.21875 -29.625 C 28.976562 -29.625 30.484375 -30.316406 31.734375 -31.703125 C 32.992188 -33.085938 33.625 -34.796875 33.625 -36.828125 C 33.625 -38.859375 32.992188 -40.566406 31.734375 -41.953125 C 30.484375 -43.335938 28.976562 -44.03125 27.21875 -44.03125 Z M 17.609375 -44.03125 "/></g></g></g><g fill="#025291" fill-opacity="1"><g transform="translate(674.862362, 216.172853)"><g><path d="M 17.609375 -12.328125 L 40.03125 -12.328125 L 40.03125 0 L 4.796875 0 L 4.796875 -56.046875 L 39.625 -56.046875 L 39.625 -43.71875 L 17.609375 -43.71875 L 17.609375 -34.421875 L 37.625 -34.421875 L 37.625 -22.25 L 17.609375 -22.25 Z M 17.609375 -12.328125 "/></g></g></g></svg>